<svg width="39" height="44" viewBox="0 0 39 44" fill="none" xmlns="http://www.w3.org/2000/svg">
<path d="M12.9876 3.81729C11.9582 2.44725 10.7996 1.21356 9.53323 0.139039C9.42113 0.0485439 9.28757 0 9.15071 0C9.01384 0 8.88029 0.0485439 8.76819 0.139039C7.50416 1.21401 6.34782 2.44768 5.3205 3.81729C3.02954 6.84921 1.82031 10.0453 1.82031 13.0609C1.82031 15.3024 2.59297 17.452 3.96831 19.0369C5.34365 20.6219 7.20901 21.5123 9.15404 21.5123C11.0991 21.5123 12.9644 20.6219 14.3398 19.0369C15.7151 17.452 16.4878 15.3024 16.4878 13.0609C16.4878 10.0453 15.2785 6.84921 12.9876 3.81729ZM13.8085 13.9579C13.6356 15.0707 13.171 16.0958 12.4773 16.8951C11.7835 17.6943 10.8939 18.2295 9.92825 18.4285C9.89269 18.4351 9.85675 18.4386 9.82074 18.4391C9.65351 18.439 9.49239 18.3665 9.36936 18.236C9.24632 18.1055 9.17035 17.9264 9.1565 17.7344C9.14266 17.5423 9.19195 17.3513 9.29461 17.1991C9.39727 17.047 9.5458 16.9449 9.71074 16.913C11.0916 16.6451 12.2634 15.2948 12.4976 13.7005C12.5272 13.4996 12.6248 13.3204 12.7691 13.2024C12.9134 13.0845 13.0924 13.0374 13.2668 13.0715C13.4411 13.1056 13.5966 13.2182 13.699 13.3844C13.8014 13.5507 13.8422 13.757 13.8126 13.9579H13.8085Z" fill="#414BC1"/>
<path fill-rule="evenodd" clip-rule="evenodd" d="M37.6395 32.9811C37.5784 35.9105 32.2637 32.7845 28.2621 36.5036C26.8616 38.2179 27.061 40.9975 25.2779 42.3094C23.4949 43.6212 21.0188 43.5111 18.78 43.4798C16.6056 43.4495 14.4715 43.0716 12.5106 42.1313C10.4844 41.1597 9.00639 39.4951 7.336 37.9921C5.04597 35.9314 1.24831 34.6894 0.846115 31.6351C0.455364 28.6677 2.80475 25.4226 5.5124 24.1434C9.64956 22.0002 10.6044 23.3088 13.038 22.3233C15.5165 21.0224 16.1102 19.3498 18.1464 19.0274C20.2488 18.6946 22.3941 19.4831 24.2357 20.5506C26.0504 21.6025 26.999 23.5662 28.5016 25.0298C30.5544 27.0293 37.6993 30.1161 37.6395 32.9811Z" stroke="#414BC1"/>
</svg>
