<svg width="58" height="66" viewBox="0 0 58 66" fill="none" xmlns="http://www.w3.org/2000/svg">
<path d="M21.1252 8.125C21.1252 6.56748 21.5871 5.04492 22.4524 3.74989C23.3177 2.45485 24.5476 1.44549 25.9866 0.849452C27.4256 0.253412 29.009 0.0974609 30.5366 0.401319C32.0642 0.705178 33.4674 1.4552 34.5687 2.55654C35.67 3.65788 36.4201 5.06107 36.7239 6.58867C37.0278 8.11627 36.8718 9.69967 36.2758 11.1386C35.6797 12.5776 34.6704 13.8075 33.3754 14.6728C32.0803 15.5381 30.5578 16 29.0002 16C26.9117 16 24.9086 15.1703 23.4318 13.6935C21.9549 12.2166 21.1252 10.2136 21.1252 8.125ZM57.0127 24.0353C56.8077 23.0272 56.2572 22.1223 55.4562 21.4769C54.6551 20.8314 53.6539 20.4859 52.6252 20.5H5.37523C4.3493 20.5 3.35414 20.8505 2.5547 21.4935C1.75525 22.1365 1.19952 23.0333 0.979604 24.0354C0.759689 25.0375 0.888794 26.0847 1.34552 27.0033C1.80225 27.922 2.55918 28.657 3.49086 29.0866H3.50773L18.6643 35.7606L12.4993 59.1888C12.0288 60.2651 11.9978 61.4827 12.413 62.5816C12.8282 63.6804 13.6565 64.5734 14.7212 65.0697C15.3162 65.3522 15.9665 65.4992 16.6252 65.5C17.4735 65.5013 18.3049 65.2627 19.0235 64.8118C19.742 64.361 20.3185 63.7162 20.6865 62.9519L29.0002 48.625L37.3196 62.9688C37.8371 64.0214 38.745 64.8303 39.8501 65.2234C40.9553 65.6164 42.1701 65.5624 43.236 65.0729C44.3019 64.5834 45.1346 63.6971 45.5566 62.6028C45.9787 61.5084 45.9568 60.2925 45.4955 59.2141L39.3305 35.7859L54.518 29.1034C55.4605 28.6833 56.2261 27.9463 56.6818 27.0205C57.1376 26.0947 57.2546 25.0385 57.0127 24.0353Z" fill="#414BC1"/>
</svg>
