<svg width="75" height="75" viewBox="0 0 75 75" fill="none" xmlns="http://www.w3.org/2000/svg">
<path d="M37.7434 60.9563C50.9817 60.9563 61.7134 50.4561 61.7134 37.5035C61.7134 24.5509 50.9817 14.0508 37.7434 14.0508C24.5052 14.0508 13.7734 24.5509 13.7734 37.5035C13.7734 50.4561 24.5052 60.9563 37.7434 60.9563Z" fill="#414BC1"/>
<path d="M73.5929 45.9862C72.7008 49.5909 68.0578 51.6183 66.1754 54.6147C64.2226 57.7211 64.4298 62.6729 61.6518 64.982C58.8737 67.2912 53.869 66.3119 50.4623 67.6864C47.0556 69.0609 44.2915 73.2085 40.5793 73.4869C36.867 73.7652 33.5867 70.1056 29.9025 69.2328C26.2183 68.3599 21.4805 70.085 18.4215 68.2431C15.3625 66.4012 14.7022 61.3842 12.3386 58.6661C9.97494 55.948 5.05802 54.5872 3.64967 51.2575C2.24133 47.9277 4.75598 43.6461 4.4715 40.0105C4.18702 36.3748 1.01561 32.6224 1.90768 29.0177C2.79975 25.4131 7.44273 23.3856 9.32521 20.3892C11.2077 17.3927 11.0707 12.3311 13.8488 10.0219C16.6549 7.68861 21.6316 8.69201 25.0383 7.31749C28.445 5.94297 31.2055 1.79536 34.9178 1.51702C38.6301 1.23868 41.9103 4.89834 45.5945 5.77116C49.2787 6.64398 54.0165 4.91896 57.0755 6.76081C60.1346 8.60267 60.7948 13.6197 63.1585 16.3378C65.5432 19.0834 70.439 20.4167 71.8474 23.7464C73.2417 27.0453 70.7411 31.3578 71.0255 34.9935C71.2995 38.4985 74.4849 42.3815 73.5929 45.9827V45.9862Z" stroke="#414BC1" stroke-width="1.8" stroke-miterlimit="10"/>
<path d="M30.0078 36.9133L35.3321 41.8856L45.4996 33.123" stroke="white" stroke-width="3.16088" stroke-linecap="round" stroke-linejoin="round"/>
</svg>
