<svg width="48" height="50" viewBox="0 0 48 50" fill="none" xmlns="http://www.w3.org/2000/svg">
<path d="M27.185 15.9625C27.4676 18.3894 27.2426 20.6478 26.6193 22.3855C25.996 24.1233 24.9299 25.4267 23.4578 25.5981C23.3033 25.6161 23.1501 25.621 22.9988 25.6134L22.6459 25.6565C17.6668 26.2701 12.6374 25.8319 7.83118 26.4695C6.43353 26.655 5.09184 25.9177 4.10324 24.5885C3.11465 23.2593 2.41334 21.3249 2.13107 18.9008C1.84859 16.475 2.11406 14.5566 2.80499 13.1621C3.49603 11.7675 4.65768 10.911 5.99188 10.7556C6.18243 10.7334 6.3729 10.708 6.56385 10.6814C6.33583 8.14042 7.44625 5.99007 9.04358 4.47536C10.6722 2.93105 12.791 1.9659 14.7893 1.69301C16.7875 1.42011 18.8811 1.82475 19.9078 3.48255C20.4212 4.31154 20.5171 5.27547 20.3202 6.43507C20.2552 6.81793 20.1525 7.21907 20.0107 7.63635C20.1864 7.61163 20.3621 7.58782 20.5358 7.56759L20.9398 7.52055C21.0705 7.48522 21.2058 7.45911 21.3438 7.44304C22.8159 7.27162 24.1529 8.29526 25.1588 9.84338C26.1648 11.3913 26.9025 13.5357 27.185 15.9625ZM26.0617 16.0933C25.7966 13.8169 25.0912 11.8144 24.2099 10.4583C23.3288 9.10221 22.3346 8.46635 21.4746 8.56649C20.6147 8.66662 19.7914 9.51413 19.2453 11.0364C18.6993 12.5587 18.4746 14.6695 18.7397 16.9459C19.0048 19.2222 19.7084 21.2252 20.5896 22.5812C21.4707 23.9373 22.4671 24.5749 23.3271 24.4748C24.187 24.3747 25.0083 23.5254 25.5542 22.0031C26.1004 20.4808 26.3268 18.3696 26.0617 16.0933ZM24.2032 20.5535C23.9623 21.9944 23.4656 22.9489 22.7966 23.0268C21.5828 23.1681 20.2601 20.3735 19.8423 16.7852C19.4245 13.1969 20.0699 10.175 21.2837 10.0337C21.9007 9.96183 22.5462 10.6494 23.0864 11.8134C22.8028 11.5256 22.5064 11.3801 22.2136 11.4142C21.1805 11.5345 20.6001 13.842 20.9176 16.5686C21.2351 19.2952 22.3302 21.4076 23.3633 21.2873C23.695 21.2486 23.9796 20.9847 24.2032 20.5535ZM18.2557 5.20389C18.2267 4.94285 18.1533 4.73908 18.058 4.58537C17.6771 3.97016 16.5581 3.63866 15.04 3.84578C13.5219 4.05301 11.7713 4.81822 10.5168 6.00794C9.32343 7.13972 8.59836 8.55292 8.70814 10.3082C11.6737 9.6977 14.649 8.74944 17.4601 8.11443C18.147 6.77183 18.3248 5.82679 18.2557 5.20389Z" fill="#414BC1"/>
<path d="M23.057 25.1109C18.3902 28.7405 18.9109 31.8509 20.7092 34.412C21.8571 35.9256 21.5035 38.0731 24.3502 38.6694C29.7998 39.6287 25.6487 45.3323 31.8409 43.7525C35.7004 42.7669 42.8687 46.7513 43.3781 42.8605C44.1105 37.267 34.4316 34.9051 33.7322 29.3075C33.335 26.1284 41.3565 26.348 40.9185 23.1742C40.5227 20.3062 28.5336 19.172 26.6868 18.37" stroke="#414BC1" stroke-width="0.725926"/>
</svg>
