<svg width="273" height="428" viewBox="0 0 273 428" fill="none" xmlns="http://www.w3.org/2000/svg">
<g clip-path="url(#clip0_396_1161)">
<rect width="272" height="428" transform="translate(0.5)" fill="#3B3A37"/>
<path d="M80.6222 198.027C80.6222 198.027 84.5422 180.831 87.5649 173.584C90.5877 166.336 102.051 152.163 80.6222 122.807C80.6222 122.807 53.7659 146.431 83.9411 176.302C83.9411 176.302 102.348 143.408 132.819 146.736C132.819 146.736 128.899 173.889 87.5562 178.723C85.0474 179.019 82.5212 179.228 79.995 179.342C77.6865 179.446 75.3694 179.464 73.0522 179.385C70.9354 179.316 68.8186 179.159 66.7105 178.915C64.7767 178.688 62.8515 178.383 60.9438 177.983C59.1842 177.617 57.4506 177.173 55.7346 176.65C54.1491 176.162 52.5899 175.605 51.0567 174.969C49.6368 174.376 48.243 173.723 46.8841 172.991C45.621 172.312 44.3927 171.58 43.1993 170.779C42.093 170.038 41.0128 169.237 39.9762 168.392C39.0093 167.599 38.0859 166.763 37.1973 165.883C36.3698 165.064 35.5858 164.202 34.8366 163.305C34.1485 162.468 33.4864 161.606 32.8766 160.717C32.3104 159.89 31.779 159.045 31.2912 158.174C30.847 157.381 30.4375 156.562 30.063 155.735C29.7319 154.985 29.427 154.228 29.1657 153.452C28.9915 152.947 28.8347 152.416 28.6953 151.893C28.6953 151.893 67.0154 147.668 79.9863 177.843C79.9863 177.843 89.1765 191.18 86.3976 218.141C86.3715 218.385 86.3454 218.629 86.3192 218.881" stroke="#E5E5E4" stroke-miterlimit="10"/>
<path d="M146.769 204.97C146.491 205.1 146.212 205.222 145.933 205.344C144.783 205.832 143.607 206.259 142.414 206.625C137.501 208.123 132.492 209.317 127.474 210.44C123.136 211.407 118.789 212.313 114.434 213.193C109.956 214.099 105.461 214.979 100.975 215.859C96.8462 216.669 92.7171 217.47 88.5967 218.306C85.9921 218.838 83.3962 219.369 80.809 220.014C77.9344 220.728 75.0597 221.46 72.1415 221.991C67.1152 222.897 61.845 223.167 56.958 221.695C55.1548 221.146 53.3952 220.371 51.5223 220.144C49.2487 219.866 46.5047 220.58 45.712 223.202C45.2155 224.848 45.7381 226.617 46.827 227.95C48.787 230.336 51.8359 231.094 54.7367 231.826C59.5627 233.037 64.3625 234.361 69.1274 235.807C78.4309 238.629 87.6298 241.896 97.1598 243.856C97.2904 243.882 97.3601 243.717 97.2469 243.638C93.6231 241.243 90.2693 238.473 86.7935 235.868C81.8805 232.192 76.5145 229.16 70.617 227.401C68.8748 226.878 67.089 226.46 65.4165 225.711C63.6743 224.927 62.4199 223.707 61.2265 222.226C60.2247 220.981 59.6933 219.674 59.6498 218.063C59.6062 216.521 60.878 215.136 62.1586 214.491C64.1011 213.507 66.4618 213.559 68.5525 213.785C70.2599 213.977 71.9411 214.343 73.6049 214.778C77.673 215.824 82.2464 216.259 86.0531 218.455C87.8999 219.517 89.6421 220.754 91.4453 221.887C93.9976 223.49 96.5587 225.092 99.1285 226.669C102.752 228.89 106.394 231.086 110.096 233.185C112.657 234.64 115.261 236.182 118.023 237.236C124.905 239.875 133.607 240.049 140.672 238.107C139.269 237.863 137.875 237.558 136.499 237.201C130.88 235.763 125.453 233.525 120.366 230.755C116.716 228.768 113.153 226.408 109.077 225.38C104.956 224.343 100.592 223.847 96.3932 223.211C93.8321 222.819 89.102 222.932 87.8127 225.519C87.8127 225.519 87.3511 226.408 87.534 227.653C87.7605 229.248 89.3023 230.711 90.3564 231.809C92.3077 233.847 94.4767 235.676 96.6632 237.453C100.165 240.293 103.771 242.994 107.439 245.607C110.357 247.689 113.24 250.206 116.411 251.888C118.371 252.924 120.575 253.186 122.753 253.299C125.122 253.43 127.483 253.578 129.853 253.743C134.722 254.065 139.548 254.457 144.417 254.841C151.299 255.39 158.329 255.477 165.071 253.787C175.525 251.173 198.174 254.658 215.596 248.56C233.018 242.462 238.245 235.493 236.502 222.427C234.464 207.13 226.92 205.005 216.467 197.165C206.014 189.325 186.849 179.742 186.849 179.742C186.849 179.742 179.88 175.387 161.587 176.258C160.254 176.319 158.93 176.345 157.597 176.328C157.101 176.328 156.604 176.31 156.116 176.293C152.223 176.162 148.372 175.683 144.548 174.995C140.794 174.315 137.1 173.331 133.511 172.042C131.116 171.179 128.711 170.178 126.168 170.038C125.689 170.012 125.21 170.021 124.73 170.064C123.25 170.204 121.777 170.674 120.54 171.502C119.312 172.329 118.049 173.697 117.831 175.221C117.613 176.728 117.692 178.244 118.04 179.734C120.654 191.058 146.56 191.903 146.56 191.903C160.96 196.05 151.482 202.461 147.048 204.891C146.064 205.431 145.872 206.764 146.665 207.557C150.846 211.747 163.242 221.93 180.76 216.329C202.538 209.36 219.089 199.778 219.089 199.778C238.541 189.325 258.001 178.871 277.453 168.418" stroke="#E5E5E4" stroke-miterlimit="10"/>
</g>
<defs>
<clipPath id="clip0_396_1161">
<rect width="272" height="428" fill="white" transform="translate(0.5)"/>
</clipPath>
</defs>
</svg>
