<svg width="148" height="170" viewBox="0 0 148 170" fill="none" xmlns="http://www.w3.org/2000/svg">
<rect x="44" y="56" width="104" height="104" rx="8" fill="white"/>
<g clip-path="url(#clip0_649_7401)">
<path d="M88.1252 82.125C88.1252 80.5675 88.5871 79.0449 89.4524 77.7499C90.3177 76.4549 91.5476 75.4455 92.9866 74.8495C94.4256 74.2534 96.009 74.0975 97.5366 74.4013C99.0642 74.7052 100.467 75.4552 101.569 76.5565C102.67 77.6579 103.42 79.0611 103.724 80.5887C104.028 82.1163 103.872 83.6997 103.276 85.1386C102.68 86.5776 101.67 87.8075 100.375 88.6728C99.0803 89.5381 97.5578 90 96.0002 90C93.9117 90 91.9086 89.1703 90.4318 87.6935C88.9549 86.2166 88.1252 84.2136 88.1252 82.125ZM124.013 98.0353C123.808 97.0272 123.257 96.1223 122.456 95.4769C121.655 94.8314 120.654 94.4859 119.625 94.5H72.3752C71.3493 94.5 70.3541 94.8505 69.5547 95.4935C68.7553 96.1365 68.1995 97.0333 67.9796 98.0354C67.7597 99.0375 67.8888 100.085 68.3455 101.003C68.8023 101.922 69.5592 102.657 70.4909 103.087H70.5077L85.6643 109.761L79.4993 133.189C79.0288 134.265 78.9978 135.483 79.413 136.582C79.8282 137.68 80.6565 138.573 81.7212 139.07C82.3162 139.352 82.9665 139.499 83.6252 139.5C84.4735 139.501 85.3049 139.263 86.0235 138.812C86.742 138.361 87.3185 137.716 87.6865 136.952L96.0002 122.625L104.32 136.969C104.837 138.021 105.745 138.83 106.85 139.223C107.955 139.616 109.17 139.562 110.236 139.073C111.302 138.583 112.135 137.697 112.557 136.603C112.979 135.508 112.957 134.292 112.496 133.214L106.331 109.786L121.518 103.103C122.461 102.683 123.226 101.946 123.682 101.02C124.138 100.095 124.255 99.0385 124.013 98.0353Z" fill="#414BC1"/>
</g>
<defs>
<clipPath id="clip0_649_7401">
<rect width="72" height="72" fill="white" transform="translate(60 72)"/>
</clipPath>
</defs>
</svg>
