<svg width="104" height="114" viewBox="0 0 104 114" fill="none" xmlns="http://www.w3.org/2000/svg">
<rect width="104" height="104" rx="8" fill="white"/>
<path d="M64.1324 84.3703H77.8148C79.19 84.3703 80.5089 83.824 81.4813 82.8516C82.4537 81.8792 83 80.5603 83 79.1851V66.9837C82.9978 66.5585 82.891 66.1404 82.6891 65.7662C82.4873 65.392 82.1965 65.0732 81.8424 64.8379C81.4883 64.6026 81.0817 64.458 80.6585 64.4168C80.2354 64.3756 79.8086 64.4391 79.4157 64.6018C78.497 64.9812 77.5125 65.1762 76.5185 65.1754C72.231 65.1754 68.7407 61.5781 68.7407 57.161C68.7407 52.7439 72.231 49.1467 76.5185 49.1467C77.5125 49.1459 78.497 49.3408 79.4157 49.7203C79.8106 49.8838 80.2397 49.9471 80.665 49.9046C81.0902 49.8622 81.4984 49.7152 81.8531 49.4769C82.2079 49.2386 82.4982 48.9163 82.6983 48.5387C82.8984 48.161 83.002 47.7398 83 47.3124V35.111C83 33.7358 82.4537 32.417 81.4813 31.4446C80.5089 30.4721 79.19 29.9258 77.8148 29.9258H66.0768C66.1251 29.4954 66.1489 29.0627 66.1481 28.6296C66.1481 25.5354 64.919 22.5679 62.731 20.38C60.5431 18.1921 57.5757 16.9629 54.4815 16.9629C51.3873 16.9629 48.4198 18.1921 46.2319 20.38C44.044 22.5679 42.8148 25.5354 42.8148 28.6296C42.8141 29.0627 42.8379 29.4954 42.8861 29.9258H31.1481C29.7729 29.9258 28.4541 30.4721 27.4817 31.4446C26.5093 32.417 25.963 33.7358 25.963 35.111V45.5527C25.5326 45.5045 25.0998 45.4806 24.6667 45.4814C21.5725 45.4814 18.605 46.7106 16.4171 48.8985C14.2292 51.0864 13 54.0539 13 57.1481C13 60.2422 14.2292 63.2097 16.4171 65.3976C18.605 67.5856 21.5725 68.8147 24.6667 68.8147C25.0998 68.8155 25.5326 68.7917 25.963 68.7434V79.1851C25.963 80.5603 26.5093 81.8792 27.4817 82.8516C28.4541 83.824 29.7729 84.3703 31.1481 84.3703H44.8305" fill="#414BC1"/>
</svg>
