<svg width="359" height="206" viewBox="0 0 359 206" fill="none" xmlns="http://www.w3.org/2000/svg">
<g clip-path="url(#clip0_434_19794)">
<path d="M-31.6641 182.533C-31.6641 182.533 13.326 227.355 73.3128 186.449C73.3128 186.449 101.238 167.749 141.574 173.592C181.91 179.436 172.601 185.28 198.458 181.774C204.032 181.014 209.628 179.997 214.954 177.964C219.205 176.339 223.652 174.714 228.12 173.686C230.695 173.09 233.312 172.774 235.929 172.622C239.528 172.4 242.962 173.02 245.692 169.806C248.185 166.872 249.777 163.085 250.698 159.182C252.756 150.51 252.27 141.347 252.218 132.453C252.136 118.217 251.443 103.994 251.556 89.7582C251.598 84.5105 252.56 77.2526 250.108 72.566C248.071 68.6624 244.585 66.1028 241.545 63.2861C236.394 58.5176 231.409 53.5271 226.393 48.5833C217.498 39.806 208.614 31.0404 199.72 22.2631C196.327 18.9088 192.707 15.8818 189.356 12.4456C187.981 10.8912 186.471 9.47703 185.033 8.00441C183.978 6.81229 182.82 5.72535 181.723 4.60335C180.544 3.39955 179.365 2.19574 178.186 0.991928C178.073 0.875054 177.928 0.746492 177.773 0.769866C177.669 0.781554 177.597 0.863366 177.514 0.933491C176.004 2.4178 174.494 3.87873 172.994 5.37473C171.495 6.87072 170.047 8.33166 168.578 9.80428C168.547 9.83934 168.516 9.86271 168.485 9.89778C165.537 12.8547 162.59 15.8116 159.632 18.7569C157.667 20.7204 155.712 22.6839 153.747 24.6474C144.956 33.448 136.154 42.2487 127.363 51.061C123.216 55.2218 118.872 59.476 114.569 63.5666C111.105 66.8625 105.54 70.544 105.24 76.2709C105.023 80.3849 105.302 84.4989 105.271 88.6012C105.24 92.7035 105.199 96.9928 105.147 101.189C105.147 109.44 104.992 117.691 104.92 125.943V126.948C104.837 135.795 104.765 144.654 104.692 153.502C104.63 161.309 104.558 169.116 104.496 176.923C104.496 181.972 104.392 187.01 104.289 192.047C104.237 194.431 104.33 196.862 105.033 199.118C105.737 201.374 107.112 203.442 109.057 204.377C110.608 205.125 112.356 205.102 114.042 205.067C124.302 204.833 134.53 204.646 144.78 204.634C146.476 204.634 148.183 204.634 149.879 204.634C155.412 204.634 160.956 204.646 166.489 204.669C172.291 204.693 178.093 204.716 183.906 204.751C189.625 204.786 195.355 204.821 201.074 204.856C206.37 204.891 211.665 204.927 216.961 204.973C221.48 205.008 226 205.043 230.52 205.078C233.912 205.102 237.315 205.137 240.707 205.172C246.375 205.172 252.125 205.382 257.762 204.821C263.399 204.26 269.035 202.25 274.248 199.585C281.188 196.032 287.59 191.287 294.095 186.799C299.153 183.305 304.314 179.95 309.806 177.403C315.318 174.843 321.079 173.627 326.902 172.354C331.453 171.36 336.055 170.659 340.678 170.238C357.557 168.707 374.767 170.881 390.808 177.087" stroke="#E5E5E4" stroke-miterlimit="10"/>
</g>
<defs>
<clipPath id="clip0_434_19794">
<rect width="423" height="205.629" fill="white" transform="translate(-32 0.185425)"/>
</clipPath>
</defs>
</svg>
