<svg width="68" height="69" viewBox="0 0 68 69" fill="none" xmlns="http://www.w3.org/2000/svg">
<path d="M2.51562 67.2551C2.51562 67.2551 28.7741 58.1659 42.9133 31.9082" stroke="#414BC1" stroke-width="1.83334" stroke-linecap="round" stroke-linejoin="round"/>
<path fill-rule="evenodd" clip-rule="evenodd" d="M18.9412 34.1965C21.1934 30.6517 23.9404 27.0413 27.253 23.7641C27.2328 23.3248 27.2076 22.8804 27.1672 22.4361C26.3138 12.544 20.1683 4.38897 11.7656 0.505859C4.15565 5.77255 -0.495132 14.8617 0.358268 24.7538C1.12077 33.5855 6.09978 41.0336 13.1391 45.2904C14.3662 42.397 16.0225 38.9633 18.1837 35.4033C16.5375 33.9339 15.0479 32.2171 13.8157 30.2225C10.7506 25.284 9.28615 18.6843 10.7001 9.90813C10.7607 9.52942 11.1192 9.27189 11.503 9.33248C11.8817 9.39308 12.1392 9.7516 12.0786 10.1303C10.7102 18.6388 12.1443 24.8851 14.9974 29.4954C16.1083 31.293 17.4566 32.8483 18.9361 34.1965H18.9412Z" fill="#414BC1"/>
<path d="M10.0938 54.6312C10.0938 54.6312 22.718 6.15542 64.1256 9.18515C64.1256 9.18515 81.2239 59.4737 18.5621 63.6951C18.4308 63.7052 18.3046 63.7103 18.1733 63.7204" stroke="#414BC1" stroke-width="1.83334" stroke-linecap="round" stroke-linejoin="round"/>
</svg>
