<svg width="180" height="103" viewBox="0 0 180 103" fill="none" xmlns="http://www.w3.org/2000/svg">
<path d="M37.9452 77.0474C37.6757 76.9456 37.3307 76.839 36.8994 76.7324C36.4682 76.6258 36.0262 76.5726 35.5788 76.5726C34.8403 76.5726 34.2527 76.7421 33.8053 77.0813C33.3579 77.4204 33.1369 77.842 33.1369 78.341C33.1369 78.7189 33.2609 79.029 33.5035 79.2761C33.746 79.5232 34.0641 79.7267 34.4522 79.8963C34.8403 80.0658 35.2608 80.2257 35.7082 80.3808C36.0531 80.4922 36.3927 80.6182 36.7269 80.7538C37.0612 80.8895 37.3684 81.0591 37.6433 81.2529C37.9182 81.4467 38.1392 81.6889 38.3009 81.9748C38.4627 82.2655 38.5435 82.6143 38.5435 83.0262C38.5435 83.5494 38.4088 84.0049 38.1392 84.3828C37.8697 84.7607 37.5085 85.0514 37.0504 85.2597C36.5922 85.4681 36.0747 85.5698 35.4979 85.5698C34.9212 85.5698 34.4684 85.5068 34.0479 85.3809C33.6275 85.2549 33.2771 85.1192 33.0022 84.9739C32.7219 84.8285 32.5224 84.7219 32.3984 84.6493L32.544 84.4167C32.7434 84.5475 32.9968 84.6832 33.304 84.8237C33.6113 84.9642 33.9455 85.0853 34.3174 85.1871C34.684 85.284 35.0613 85.3373 35.444 85.3373C35.913 85.3373 36.3604 85.2549 36.7916 85.0853C37.2229 84.9157 37.5732 84.6638 37.8482 84.3246C38.1231 83.9855 38.2578 83.5591 38.2578 83.0407C38.2578 82.5223 38.1231 82.125 37.8535 81.8197C37.584 81.5145 37.2444 81.2674 36.8294 81.0833C36.4143 80.8992 35.9777 80.7296 35.5141 80.5746C35.1799 80.4728 34.8511 80.3565 34.5384 80.2306C34.2258 80.1046 33.9401 79.9593 33.6867 79.7994C33.4334 79.6395 33.2286 79.436 33.0776 79.2034C32.9267 78.9709 32.8458 78.6947 32.8458 78.3798C32.8458 77.9776 32.9644 77.6239 33.2016 77.3235C33.4388 77.0231 33.7622 76.7857 34.1719 76.6162C34.5816 76.4417 35.0343 76.3594 35.541 76.3594C35.9022 76.3594 36.328 76.4078 36.8132 76.4999C37.2983 76.5968 37.708 76.7131 38.053 76.8633L37.9398 77.0571L37.9452 77.0474Z" fill="white"/>
<path d="M35.4988 85.9848C34.9058 85.9848 34.3668 85.9121 33.8978 85.7764C33.445 85.6456 33.0623 85.4954 32.7604 85.3307C32.4801 85.1805 32.2753 85.0739 32.1459 85.0012L31.7578 84.7832L32.3831 83.7706L32.8197 84.0516C32.9976 84.1679 33.2348 84.2938 33.5205 84.4247C33.8008 84.5555 34.1134 84.6669 34.453 84.7541C35.1592 84.9431 35.9246 84.9334 36.6038 84.6669C36.9542 84.5313 37.2345 84.3278 37.4609 84.0467C37.6765 83.7803 37.7789 83.4411 37.7789 83.0147C37.7789 82.5884 37.6765 82.288 37.4824 82.0603C37.256 81.8035 36.9757 81.6 36.62 81.4449C36.2211 81.2657 35.7952 81.1009 35.3532 80.9507C35.0244 80.849 34.6848 80.7327 34.3506 80.6019C34.0056 80.4662 33.693 80.3063 33.4073 80.1271C33.1 79.9284 32.8521 79.6862 32.6634 79.4003C32.4693 79.0999 32.3669 78.7511 32.3669 78.3538C32.3669 77.8596 32.5179 77.4187 32.8143 77.0456C33.1 76.6871 33.4881 76.4012 33.9679 76.1977C34.7603 75.8634 35.6551 75.8053 36.9164 76.0524C37.4339 76.1541 37.8867 76.285 38.2587 76.4449L38.7114 76.6387L38.1508 77.5786L37.7466 77.4235C37.504 77.3315 37.1698 77.2298 36.7601 77.128C36.372 77.0311 35.9731 76.9826 35.5688 76.9826C34.9435 76.9826 34.4638 77.1183 34.108 77.3896C33.7684 77.6513 33.6067 77.9468 33.6067 78.3199C33.6067 78.5912 33.6876 78.8044 33.8493 78.9691C34.0487 79.1726 34.3183 79.347 34.6471 79.4875C35.0244 79.6523 35.4341 79.8073 35.8653 79.9575C36.2049 80.069 36.5607 80.1998 36.9111 80.3403C37.2776 80.4905 37.6172 80.6746 37.9244 80.8878C38.2586 81.1203 38.5228 81.411 38.7168 81.755C38.9109 82.1039 39.0133 82.5206 39.0133 83.0002C39.0133 83.6058 38.8516 84.1388 38.539 84.5845C38.2263 85.0303 37.7951 85.3743 37.256 85.6165C36.7332 85.8539 36.1402 85.9702 35.4934 85.9702L35.4988 85.9848Z" fill="white"/>
<path d="M48.2266 76.3809H54.2423V76.628H48.5123V80.7463H53.6817V80.9933H48.5123V85.1989H54.4417V85.446H48.2266V76.3857V76.3809Z" fill="white"/>
<path d="M54.9325 85.8553H47.7578V75.9375H54.733V77.0422H49.003V80.2981H54.1724V81.4027H49.003V84.7507H54.9325V85.8553Z" fill="white"/>
<path d="M66.4425 76.4336C66.7282 76.4336 67.0408 76.4772 67.3804 76.5644C67.72 76.6516 68.0434 76.7873 68.3399 76.9762C68.6418 77.1652 68.8897 77.4123 69.0784 77.7175C69.2671 78.0228 69.3641 78.4007 69.3641 78.8464C69.3641 79.1711 69.3048 79.4908 69.1916 79.7961C69.0784 80.1013 68.8951 80.3726 68.6526 80.6149C68.41 80.8571 68.092 81.0461 67.6985 81.1914C67.305 81.332 66.8252 81.4046 66.2484 81.4046H64.6529V85.4938H64.3672V76.4336H66.4371H66.4425ZM66.2107 81.1527C66.7875 81.1527 67.2564 81.0848 67.623 80.9443C67.9895 80.8087 68.2806 80.6246 68.4909 80.4017C68.7011 80.1788 68.852 79.9317 68.9436 79.6604C69.0353 79.3891 69.0784 79.1226 69.0784 78.8561C69.0784 78.5363 69.0083 78.2408 68.8682 77.9743C68.728 77.7078 68.5394 77.4704 68.3022 77.2766C68.065 77.0828 67.7847 76.9326 67.4721 76.8309C67.154 76.7291 66.8144 76.6758 66.4533 76.6758H64.6583V81.1527H66.2107ZM67.5314 81.1672L70.4152 85.489H70.0864L67.2025 81.1672H67.5314Z" fill="white"/>
<path d="M71.2725 85.9109H69.8225L67.0572 81.7733C66.8093 81.8072 66.5451 81.8217 66.2594 81.8217H65.1436V85.9109H63.8984V75.9883H66.4427C66.7715 75.9883 67.1327 76.0367 67.5154 76.1336C67.9035 76.2305 68.2755 76.3904 68.6204 76.6084C68.9816 76.8313 69.2781 77.1317 69.5045 77.4902C69.7363 77.8585 69.8548 78.3139 69.8548 78.8323C69.8548 79.2054 69.7902 79.5688 69.6554 79.9176C69.5206 80.281 69.305 80.6056 69.0193 80.8915C68.8145 81.095 68.5611 81.2694 68.2701 81.4147L71.2725 85.9109ZM65.149 80.7122H66.2217C66.7284 80.7122 67.1435 80.6541 67.4507 80.5378C67.7472 80.4263 67.979 80.2858 68.1407 80.1163C68.3078 79.937 68.4264 79.7432 68.5018 79.53C68.5773 79.3023 68.6204 79.0746 68.6204 78.8469C68.6204 78.5901 68.5665 78.3575 68.4533 78.1443C68.3401 77.9263 68.1946 77.7422 68.0005 77.5871C67.8065 77.4273 67.5855 77.311 67.3267 77.2238C67.0626 77.1366 66.7769 77.093 66.4697 77.093H65.1544V80.7074L65.149 80.7122Z" fill="white"/>
<path d="M80.0152 75.9375H79.7188L83.5783 84.1596L83.5891 84.1402L80.0098 75.9375H80.0152ZM83.5945 84.1402V84.1596L83.7993 83.6944L83.5945 84.1353V84.1402ZM87.1521 75.9375L83.7939 83.6944L87.4324 75.9375H87.1467H87.1521Z" fill="white"/>
<path d="M87.9739 75.9375L83.5807 85.8602L79.1875 75.9375H80.5297L83.5915 82.9725L86.6371 75.9375H87.9739Z" fill="white"/>
<path d="M97.3672 76.3809H97.6524V85.4411H97.3672V76.3809Z" fill="white"/>
<path d="M98.1432 75.9375H96.8984V85.8602H98.1432V75.9375Z" fill="white"/>
<path d="M115.274 84.8968C115.026 85.0276 114.761 85.139 114.476 85.2408C114.195 85.3377 113.894 85.4152 113.581 85.4733C113.263 85.5315 112.934 85.5557 112.589 85.5557C111.824 85.5557 111.128 85.4346 110.498 85.1923C109.872 84.9501 109.333 84.6206 108.88 84.1991C108.428 83.7776 108.088 83.2882 107.846 82.7359C107.608 82.1787 107.484 81.5924 107.484 80.9723C107.484 80.3182 107.614 79.7077 107.878 79.1408C108.142 78.574 108.509 78.0749 108.978 77.6486C109.446 77.2222 109.991 76.8879 110.616 76.6505C111.236 76.4082 111.905 76.2871 112.611 76.2871C113.101 76.2871 113.565 76.3452 114.012 76.4615C114.46 76.5778 114.875 76.7377 115.268 76.946L115.123 77.1641C114.756 76.9654 114.363 76.8104 113.937 76.6989C113.511 76.5875 113.069 76.5294 112.611 76.5294C111.948 76.5294 111.328 76.6456 110.735 76.8734C110.147 77.1011 109.63 77.4208 109.193 77.8278C108.751 78.2348 108.406 78.7096 108.153 79.2474C107.899 79.7852 107.77 80.3618 107.77 80.982C107.77 81.5585 107.883 82.1109 108.11 82.6341C108.336 83.1574 108.659 83.6225 109.08 84.0198C109.5 84.422 110.007 84.732 110.595 84.9598C111.182 85.1875 111.845 85.3038 112.584 85.3038C113.053 85.3038 113.5 85.2456 113.921 85.1293C114.341 85.0131 114.734 84.858 115.096 84.6691L115.268 84.8871L115.274 84.8968Z" fill="white"/>
<path d="M112.6 85.9718C111.77 85.9718 111.005 85.8361 110.32 85.5745C109.635 85.3129 109.042 84.9446 108.547 84.4844C108.051 84.0241 107.673 83.4814 107.409 82.8758C107.15 82.275 107.016 81.6306 107.016 80.9572C107.016 80.2498 107.161 79.5763 107.447 78.961C107.733 78.3457 108.137 77.7982 108.649 77.333C109.161 76.8679 109.759 76.4997 110.439 76.2381C111.587 75.7923 112.967 75.7245 114.158 76.0346C114.638 76.1605 115.101 76.335 115.522 76.5627L115.937 76.7807L115.306 77.7497L114.891 77.522C114.562 77.3427 114.206 77.2022 113.818 77.1005C112.891 76.8582 111.835 76.9115 110.94 77.2555C110.412 77.459 109.943 77.7497 109.549 78.1131C109.15 78.4813 108.832 78.9174 108.606 79.4019C108.379 79.8864 108.261 80.4097 108.261 80.9717C108.261 81.495 108.363 81.994 108.568 82.4688C108.768 82.9388 109.064 83.3603 109.436 83.714C109.808 84.0677 110.266 84.3535 110.789 84.557C111.312 84.7605 111.921 84.8623 112.589 84.8623C113.01 84.8623 113.409 84.809 113.786 84.7072C114.169 84.6006 114.535 84.4601 114.864 84.2906L115.247 84.0919L115.975 85.0221L115.522 85.2596C115.252 85.4001 114.961 85.5212 114.659 85.6278C114.352 85.7344 114.023 85.8216 113.678 85.8797C113.333 85.9427 112.967 85.9718 112.595 85.9718H112.6Z" fill="white"/>
<path d="M125.133 76.3809H131.149V76.628H125.419V80.7463H130.588V80.9933H125.419V85.1989H131.348V85.446H125.133V76.3857V76.3809Z" fill="white"/>
<path d="M131.839 85.8553H124.664V75.9375H131.639V77.0422H125.909V80.2981H131.079V81.4027H125.909V84.7507H131.839V85.8553Z" fill="white"/>
<path d="M146.039 77.0474C145.769 76.9456 145.424 76.839 144.993 76.7324C144.562 76.6258 144.12 76.5726 143.673 76.5726C142.934 76.5726 142.346 76.7421 141.899 77.0813C141.452 77.4204 141.231 77.842 141.231 78.341C141.231 78.7189 141.355 79.029 141.597 79.2761C141.84 79.5232 142.158 79.7267 142.546 79.8963C142.934 80.0658 143.354 80.2257 143.802 80.3808C144.147 80.4922 144.486 80.6182 144.821 80.7538C145.155 80.8895 145.462 81.0591 145.737 81.2529C146.012 81.4467 146.233 81.6889 146.395 81.9748C146.556 82.2655 146.637 82.6143 146.637 83.0262C146.637 83.5494 146.502 84.0049 146.233 84.3828C145.963 84.7607 145.602 85.0514 145.144 85.2597C144.686 85.4681 144.168 85.5698 143.592 85.5698C143.015 85.5698 142.562 85.5068 142.142 85.3809C141.721 85.2549 141.371 85.1192 141.096 84.9739C140.816 84.8285 140.616 84.7219 140.492 84.6493L140.638 84.4167C140.837 84.5475 141.091 84.6832 141.398 84.8237C141.705 84.9642 142.039 85.0853 142.411 85.1871C142.778 85.284 143.155 85.3373 143.538 85.3373C144.007 85.3373 144.454 85.2549 144.885 85.0853C145.317 84.9157 145.667 84.6638 145.942 84.3246C146.217 83.9855 146.352 83.5591 146.352 83.0407C146.352 82.5223 146.217 82.125 145.947 81.8197C145.678 81.5145 145.338 81.2674 144.923 81.0833C144.508 80.8992 144.071 80.7296 143.608 80.5746C143.274 80.4728 142.945 80.3565 142.632 80.2306C142.32 80.1046 142.034 79.9593 141.78 79.7994C141.527 79.6395 141.322 79.436 141.171 79.2034C141.02 78.9709 140.94 78.6947 140.94 78.3798C140.94 77.9776 141.058 77.6239 141.295 77.3235C141.533 77.0231 141.856 76.7857 142.266 76.6162C142.675 76.4417 143.128 76.3594 143.635 76.3594C143.996 76.3594 144.422 76.4078 144.907 76.4999C145.392 76.5968 145.802 76.7131 146.147 76.8633L146.034 77.0571L146.039 77.0474Z" fill="white"/>
<path d="M143.592 85.9848C143 85.9848 142.461 85.9121 141.992 85.7764C141.539 85.6456 141.156 85.4954 140.854 85.3307C140.574 85.1805 140.369 85.0739 140.24 85.0012L139.852 84.7832L140.477 83.7706L140.913 84.0516C141.097 84.1679 141.329 84.2938 141.614 84.4247C141.895 84.5555 142.207 84.6669 142.541 84.7541C143.248 84.9431 144.013 84.9334 144.692 84.6669C145.043 84.5313 145.323 84.3278 145.549 84.0467C145.765 83.7803 145.867 83.4411 145.867 83.0147C145.867 82.5884 145.765 82.288 145.571 82.0603C145.344 81.8035 145.064 81.6 144.708 81.4449C144.309 81.2657 143.884 81.1009 143.442 80.9507C143.113 80.849 142.768 80.7279 142.439 80.6019C142.094 80.4662 141.776 80.3063 141.501 80.1271C141.194 79.9284 140.946 79.6862 140.757 79.4003C140.563 79.0999 140.461 78.7511 140.461 78.3538C140.461 77.8596 140.612 77.4187 140.908 77.0456C141.194 76.6871 141.582 76.4012 142.062 76.1977C142.854 75.8634 143.749 75.8053 145.01 76.0524C145.528 76.1541 145.98 76.285 146.352 76.4449L146.805 76.6387L146.245 77.5834L145.84 77.4284C145.598 77.3363 145.264 77.2346 144.854 77.1328C144.466 77.0359 144.067 76.9875 143.663 76.9875C143.037 76.9875 142.558 77.1232 142.202 77.3945C141.862 77.6561 141.706 77.9468 141.706 78.3247C141.706 78.5961 141.787 78.8092 141.948 78.974C142.148 79.1775 142.417 79.3519 142.746 79.4924C143.124 79.6523 143.533 79.8122 143.964 79.9624C144.304 80.0738 144.66 80.2046 145.01 80.3451C145.377 80.4953 145.716 80.6794 146.024 80.8926C146.358 81.1252 146.622 81.4159 146.816 81.7599C147.01 82.1087 147.112 82.5254 147.112 83.005C147.112 83.6107 146.951 84.1436 146.638 84.5894C146.325 85.0351 145.894 85.3791 145.355 85.6214C144.832 85.8588 144.239 85.9751 143.592 85.9751V85.9848Z" fill="white"/>
<g clip-path="url(#clip0_451_20)">
<path d="M48.4423 61.4471V56.8539C48.4423 54.7318 46.7211 53.0105 44.5942 53.0105H41.5007C42.5994 51.5769 43.5143 50.0112 44.25 48.3183C45.4195 45.6208 46.0043 42.73 46.0043 39.6364C46.0043 36.5429 45.4195 33.7794 44.25 31.082C43.0805 28.3892 41.4582 25.9983 39.3785 23.9186C37.2989 21.8437 34.908 20.2026 32.2152 19.0189C29.5178 17.8305 26.6506 17.2363 23.5994 17.2363C20.5483 17.2363 17.6151 17.8305 14.9223 19.0189C12.2296 20.2026 9.86227 21.8437 7.82032 23.9186C5.77838 25.9983 4.18443 28.3892 3.03377 31.082C1.88783 33.7794 1.3125 36.6278 1.3125 39.6364C1.3125 42.6451 1.88783 45.6208 3.03377 48.3183C4.18443 51.011 5.77838 53.3783 7.82032 55.4203C9.86227 57.4575 12.2296 59.0515 14.9223 60.2021C17.4453 61.2773 20.138 61.8432 23.0005 61.9187H23.0194C23.208 61.9234 23.3967 61.9234 23.5853 61.9234H48.4423V61.4518H28.2445C28.2445 61.4518 28.2587 61.4471 28.2681 61.4471H48.4423ZM18.5158 52.4729C16.8747 51.7608 15.4269 50.7611 14.1772 49.4736C12.9323 48.1862 11.9608 46.7007 11.2676 45.0172C10.5744 43.3336 10.2254 41.5416 10.2254 39.6364C10.2254 37.7313 10.5602 35.9487 11.2393 34.2651C11.9089 32.5769 12.8615 31.1055 14.0876 29.837C15.3185 28.5637 16.7426 27.5781 18.3696 26.8613C19.9918 26.1492 21.7556 25.7955 23.6607 25.7955C25.5659 25.7955 27.3202 26.1492 28.9472 26.8613C30.5694 27.5781 31.9889 28.5637 33.1961 29.837C34.4034 31.1055 35.356 32.5769 36.0492 34.2651C36.7424 35.9487 37.0867 37.7407 37.0867 39.6364C37.0867 41.5322 36.7518 43.395 36.0822 45.0785C35.4031 46.762 34.4741 48.2381 33.2857 49.5019C32.0973 50.7705 30.7015 51.7608 29.0934 52.4729C27.49 53.1897 25.7593 53.5481 23.8965 53.5481C22.0338 53.5481 20.1616 53.1897 18.5158 52.4729Z" fill="white"/>
<path d="M112.548 32.0086C111.667 29.2593 110.275 26.7694 108.375 24.5482C106.47 22.3224 103.961 20.5445 100.834 19.2099C97.7125 17.8753 93.9257 17.2057 89.4834 17.2057H84.8524V17.168H76.2649V45.0384C76.2649 46.439 75.8547 47.783 75.0341 49.061C74.2136 50.3437 73.1006 51.3859 71.7 52.1876C70.2994 52.9893 68.6961 53.3854 66.8946 53.3854C65.2535 53.3854 63.7397 52.9893 62.358 52.1876C60.9763 51.3859 59.868 50.3437 59.0239 49.061C58.1845 47.783 57.7648 46.439 57.7648 45.0384V17.168H49.0547V45.2176C49.0547 48.4621 49.8564 51.334 51.4598 53.8381C53.0584 56.3422 55.2135 58.304 57.9157 59.7235C60.6179 61.1477 63.6124 61.855 66.8946 61.855C67.0172 61.855 67.1446 61.855 67.2672 61.8503H91.6432C94.6472 61.8503 97.4908 61.3599 100.174 60.3648C102.857 59.3745 105.22 57.9409 107.262 56.0593C109.304 54.1777 110.917 51.9141 112.096 49.2638C113.279 46.6182 113.869 43.6331 113.869 40.3179C113.869 37.5261 113.43 34.758 112.548 32.0086ZM103.81 45.6279C103.107 47.3445 102.108 48.7686 100.806 49.9004C99.5045 51.0369 97.953 51.8952 96.1515 52.48C94.3501 53.0647 92.3459 53.3618 90.1436 53.3618H84.9798V32.7962C84.9798 30.8203 85.772 29.0282 87.0547 27.7361C88.3374 26.4393 90.1106 25.6376 92.0676 25.6376C93.0674 25.6376 94.2888 25.8309 95.7318 26.2129C97.1701 26.5996 98.5849 27.2975 99.9666 28.3067C101.344 29.3206 102.508 30.7448 103.447 32.584C104.39 34.4231 104.862 36.7999 104.862 39.7096C104.862 41.9354 104.508 43.9066 103.81 45.6279Z" fill="white"/>
<path d="M124.476 30.865V35.0763H143.452V43.4846H124.476V53.0341H145.895V61.4471H115.766V17.2363H145.919V25.6493H129.691C126.81 25.6493 124.476 27.9837 124.476 30.865Z" fill="white"/>
<path d="M162.851 25.6466H178.856V17.2383H148.703V61.4443H178.832V53.036H157.413V43.4865H176.39V35.0782H157.413V31.0886C157.413 28.0847 159.847 25.6466 162.851 25.6466Z" fill="white"/>
</g>
<defs>
<clipPath id="clip0_451_20">
<rect width="177.55" height="44.7531" fill="white" transform="translate(1.3125 17.168)"/>
</clipPath>
</defs>
</svg>
