<svg width="91" height="36" viewBox="0 0 91 36" fill="none" xmlns="http://www.w3.org/2000/svg">
<path d="M19.229 30.901C19.093 30.8497 18.9188 30.7959 18.7012 30.7421C18.4836 30.6882 18.2605 30.6613 18.0347 30.6613C17.662 30.6613 17.3655 30.7469 17.1397 30.9182C16.9139 31.0894 16.8024 31.3022 16.8024 31.5541C16.8024 31.7449 16.865 31.9015 16.9874 32.0262C17.1098 32.151 17.2703 32.2537 17.4662 32.3393C17.662 32.4249 17.8742 32.5057 18.1 32.5839C18.2741 32.6402 18.4455 32.7038 18.6142 32.7723C18.7828 32.8408 18.9379 32.9264 19.0766 33.0242C19.2154 33.1221 19.3269 33.2444 19.4085 33.3887C19.4901 33.5354 19.5309 33.7116 19.5309 33.9195C19.5309 34.1836 19.4629 34.4136 19.3269 34.6044C19.1909 34.7952 19.0086 34.9419 18.7774 35.0471C18.5462 35.1523 18.285 35.2036 17.9939 35.2036C17.7028 35.2036 17.4743 35.1718 17.2621 35.1083C17.0499 35.0447 16.8731 34.9762 16.7344 34.9028C16.5929 34.8294 16.4923 34.7756 16.4297 34.7389L16.5031 34.6215C16.6038 34.6875 16.7317 34.756 16.8867 34.827C17.0418 34.8979 17.2104 34.959 17.3982 35.0104C17.5831 35.0593 17.7736 35.0862 17.9667 35.0862C18.2034 35.0862 18.4292 35.0447 18.6468 34.959C18.8644 34.8734 19.0413 34.7462 19.18 34.575C19.3188 34.4038 19.3868 34.1885 19.3868 33.9268C19.3868 33.6651 19.3187 33.4645 19.1827 33.3104C19.0467 33.1563 18.8753 33.0316 18.6659 32.9386C18.4564 32.8457 18.236 32.76 18.0021 32.6818C17.8334 32.6304 17.6675 32.5717 17.5097 32.5081C17.3519 32.4445 17.2077 32.3711 17.0799 32.2904C16.952 32.2097 16.8486 32.107 16.7725 31.9895C16.6963 31.8721 16.6555 31.7327 16.6555 31.5737C16.6555 31.3707 16.7153 31.1921 16.835 31.0405C16.9547 30.8888 17.1179 30.769 17.3247 30.6834C17.5314 30.5953 17.76 30.5537 18.0157 30.5537C18.1979 30.5537 18.4129 30.5782 18.6577 30.6246C18.9025 30.6736 19.1093 30.7323 19.2834 30.8081L19.2263 30.9059L19.229 30.901Z" fill="#010FAD"/>
<path d="M17.9973 35.4124C17.6981 35.4124 17.426 35.3757 17.1894 35.3072C16.9609 35.2412 16.7677 35.1654 16.6154 35.0822C16.4739 35.0064 16.3705 34.9526 16.3052 34.9159L16.1094 34.8058L16.4249 34.2946L16.6453 34.4365C16.7351 34.4952 16.8548 34.5588 16.9989 34.6248C17.1404 34.6908 17.2982 34.7471 17.4696 34.7911C17.8259 34.8865 18.2122 34.8816 18.555 34.7471C18.7318 34.6786 18.8733 34.5759 18.9876 34.434C19.0964 34.2995 19.1481 34.1283 19.1481 33.913C19.1481 33.6978 19.0964 33.5461 18.9984 33.4311C18.8842 33.3015 18.7427 33.1988 18.5632 33.1205C18.3619 33.03 18.147 32.9468 17.9239 32.871C17.7579 32.8196 17.5866 32.7609 17.4179 32.6949C17.2438 32.6264 17.086 32.5457 16.9418 32.4552C16.7868 32.3549 16.6616 32.2326 16.5664 32.0882C16.4685 31.9366 16.4168 31.7605 16.4168 31.5599C16.4168 31.3104 16.493 31.0878 16.6426 30.8995C16.7868 30.7185 16.9826 30.5741 17.2247 30.4714C17.6246 30.3026 18.0762 30.2733 18.7128 30.398C18.974 30.4494 19.2025 30.5154 19.3902 30.5962L19.6187 30.694L19.3358 31.1685L19.1317 31.0903C19.0093 31.0438 18.8407 30.9924 18.6339 30.9411C18.438 30.8921 18.2367 30.8677 18.0327 30.8677C17.7171 30.8677 17.475 30.9362 17.2955 31.0731C17.1241 31.2052 17.0425 31.3544 17.0425 31.5428C17.0425 31.6798 17.0833 31.7874 17.1649 31.8706C17.2655 31.9733 17.4016 32.0613 17.5675 32.1323C17.7579 32.2154 17.9647 32.2937 18.1823 32.3695C18.3537 32.4258 18.5332 32.4918 18.7101 32.5628C18.8951 32.6386 19.0664 32.7316 19.2215 32.8392C19.3902 32.9566 19.5235 33.1034 19.6214 33.277C19.7193 33.4531 19.771 33.6635 19.771 33.9057C19.771 34.2114 19.6894 34.4805 19.5316 34.7055C19.3738 34.9306 19.1562 35.1042 18.8842 35.2265C18.6203 35.3464 18.3211 35.4051 17.9946 35.4051L17.9973 35.4124Z" fill="#010FAD"/>
<path d="M24.4219 30.5625H27.4578V30.6873H24.5661V32.7664H27.1749V32.8911H24.5661V35.0143H27.5585V35.1391H24.4219V30.5649V30.5625Z" fill="#010FAD"/>
<path d="M27.8083 35.345H24.1875V30.3379H27.7077V30.8956H24.8159V32.5393H27.4248V33.097H24.8159V34.7873H27.8083V35.345Z" fill="#010FAD"/>
<path d="M33.6099 30.5869C33.754 30.5869 33.9118 30.6089 34.0832 30.653C34.2546 30.697 34.4178 30.7655 34.5674 30.8609C34.7198 30.9563 34.8449 31.081 34.9401 31.2351C35.0353 31.3892 35.0843 31.58 35.0843 31.805C35.0843 31.9689 35.0544 32.1304 34.9973 32.2845C34.9401 32.4386 34.8476 32.5756 34.7252 32.6979C34.6028 32.8202 34.4423 32.9156 34.2437 32.9889C34.0451 33.0599 33.803 33.0966 33.5119 33.0966H32.7067V35.161H32.5625V30.5869H33.6071H33.6099ZM33.4929 32.9694C33.784 32.9694 34.0206 32.9351 34.2056 32.8642C34.3906 32.7957 34.5375 32.7027 34.6436 32.5902C34.7497 32.4777 34.8259 32.353 34.8721 32.216C34.9184 32.079 34.9401 31.9445 34.9401 31.8099C34.9401 31.6485 34.9048 31.4993 34.834 31.3648C34.7633 31.2302 34.6681 31.1104 34.5484 31.0125C34.4287 30.9147 34.2872 30.8389 34.1294 30.7875C33.9689 30.7361 33.7976 30.7092 33.6153 30.7092H32.7094V32.9694H33.4929ZM34.1594 32.9767L35.6148 35.1586H35.4488L33.9934 32.9767H34.1594Z" fill="#010FAD"/>
<path d="M36.0496 35.3718H35.3178L33.9223 33.2829C33.7971 33.3 33.6638 33.3073 33.5197 33.3073H32.9565V35.3718H32.3281V30.3623H33.6122C33.7781 30.3623 33.9604 30.3868 34.1535 30.4357C34.3494 30.4846 34.5371 30.5653 34.7112 30.6754C34.8935 30.7879 35.0431 30.9396 35.1573 31.1206C35.2743 31.3065 35.3342 31.5364 35.3342 31.7981C35.3342 31.9865 35.3015 32.1699 35.2335 32.346C35.1655 32.5295 35.0567 32.6934 34.9125 32.8377C34.8091 32.9404 34.6813 33.0285 34.5344 33.1019L36.0496 35.3718ZM32.9593 32.7472H33.5006C33.7563 32.7472 33.9658 32.7178 34.1209 32.6591C34.2705 32.6029 34.3875 32.5319 34.4691 32.4463C34.5534 32.3558 34.6133 32.258 34.6513 32.1504C34.6894 32.0354 34.7112 31.9204 34.7112 31.8055C34.7112 31.6758 34.684 31.5584 34.6269 31.4508C34.5697 31.3407 34.4963 31.2478 34.3983 31.1695C34.3004 31.0888 34.1889 31.0301 34.0583 30.986C33.925 30.942 33.7808 30.92 33.6258 30.92H32.962V32.7448L32.9593 32.7472Z" fill="#010FAD"/>
<path d="M40.4699 30.3379H40.3203L42.2681 34.4888L42.2736 34.479L40.4672 30.3379H40.4699ZM42.2763 34.479V34.4888L42.3797 34.254L42.2763 34.4766V34.479ZM44.0717 30.3379L42.3769 34.254L44.2132 30.3379H44.069H44.0717Z" fill="#010FAD"/>
<path d="M44.4811 30.3379L42.264 35.3474L40.0469 30.3379H40.7243L42.2694 33.8896L43.8065 30.3379H44.4811Z" fill="#010FAD"/>
<path d="M49.2188 30.5625H49.3628V35.1366H49.2188V30.5625Z" fill="#010FAD"/>
<path d="M49.6126 30.3379H48.9844V35.3474H49.6126V30.3379Z" fill="#010FAD"/>
<path d="M58.2591 34.8613C58.134 34.9273 58.0007 34.9836 57.8565 35.0349C57.715 35.0839 57.5627 35.123 57.4049 35.1524C57.2444 35.1817 57.0784 35.1939 56.9043 35.1939C56.518 35.1939 56.1671 35.1328 55.8488 35.0105C55.5333 34.8882 55.2612 34.7218 55.0327 34.509C54.8042 34.2962 54.6328 34.0492 54.5104 33.7703C54.3907 33.489 54.3281 33.1931 54.3281 32.88C54.3281 32.5498 54.3934 32.2416 54.5267 31.9554C54.66 31.6692 54.845 31.4172 55.0817 31.202C55.3183 30.9867 55.5931 30.818 55.9087 30.6981C56.2215 30.5758 56.5589 30.5146 56.9152 30.5146C57.1628 30.5146 57.3967 30.544 57.6225 30.6027C57.8483 30.6614 58.0578 30.7421 58.2564 30.8473L58.1829 30.9574C57.9979 30.8571 57.7994 30.7788 57.5844 30.7226C57.3695 30.6663 57.1465 30.637 56.9152 30.637C56.5806 30.637 56.2678 30.6957 55.9685 30.8106C55.672 30.9256 55.4108 31.087 55.1905 31.2925C54.9674 31.498 54.7933 31.7377 54.6655 32.0092C54.5376 32.2807 54.4723 32.5718 54.4723 32.8849C54.4723 33.1759 54.5294 33.4548 54.6437 33.719C54.7579 33.9831 54.9212 34.218 55.1334 34.4185C55.3456 34.6216 55.6013 34.7781 55.8978 34.8931C56.1943 35.008 56.5289 35.0667 56.9016 35.0667C57.1383 35.0667 57.3641 35.0374 57.5763 34.9787C57.7885 34.92 57.9871 34.8417 58.1693 34.7463L58.2564 34.8564L58.2591 34.8613Z" fill="#010FAD"/>
<path d="M56.9121 35.4042C56.4931 35.4042 56.1068 35.3357 55.7614 35.2036C55.4159 35.0715 55.1166 34.8856 54.8664 34.6533C54.6161 34.4209 54.4256 34.1469 54.2923 33.8412C54.1618 33.5379 54.0938 33.2125 54.0938 32.8725C54.0938 32.5154 54.1672 32.1754 54.3114 31.8648C54.4556 31.5541 54.6596 31.2777 54.918 31.0429C55.1765 30.8081 55.4784 30.6222 55.8212 30.4901C56.4006 30.265 57.0971 30.2308 57.6983 30.3874C57.9404 30.451 58.1743 30.539 58.3865 30.654L58.596 30.764L58.2777 31.2533L58.0683 31.1383C57.9023 31.0478 57.7228 30.9769 57.5269 30.9255C57.059 30.8032 56.5258 30.8301 56.0742 31.0038C55.8076 31.1065 55.5709 31.2533 55.3723 31.4367C55.171 31.6226 55.0105 31.8428 54.8963 32.0874C54.782 32.332 54.7222 32.5961 54.7222 32.8799C54.7222 33.1441 54.7739 33.396 54.8772 33.6357C54.9779 33.873 55.1275 34.0858 55.3152 34.2643C55.5029 34.4429 55.7341 34.5872 55.998 34.69C56.2619 34.7927 56.5693 34.8441 56.9066 34.8441C57.1188 34.8441 57.3201 34.8171 57.5106 34.7658C57.7037 34.712 57.8887 34.641 58.0546 34.5554L58.2478 34.4551L58.6151 34.9248L58.3865 35.0446C58.2505 35.1156 58.1036 35.1767 57.9513 35.2305C57.7962 35.2843 57.6303 35.3284 57.4562 35.3577C57.2821 35.3895 57.0971 35.4042 56.9094 35.4042H56.9121Z" fill="#010FAD"/>
<path d="M63.2344 30.5625H66.2703V30.6873H63.3786V32.7664H65.9874V32.8911H63.3786V35.0143H66.371V35.1391H63.2344V30.5649V30.5625Z" fill="#010FAD"/>
<path d="M66.6208 35.345H63V30.3379H66.5202V30.8956H63.6284V32.5393H66.2373V33.097H63.6284V34.7873H66.6208V35.345Z" fill="#010FAD"/>
<path d="M73.7759 30.901C73.6398 30.8497 73.4657 30.7959 73.2481 30.7421C73.0305 30.6882 72.8074 30.6613 72.5816 30.6613C72.2089 30.6613 71.9124 30.7469 71.6866 30.9182C71.4608 31.0894 71.3493 31.3022 71.3493 31.5541C71.3493 31.7449 71.4118 31.9015 71.5342 32.0262C71.6567 32.151 71.8172 32.2537 72.013 32.3393C72.2089 32.4249 72.4211 32.5057 72.6469 32.5839C72.821 32.6402 72.9924 32.7038 73.161 32.7723C73.3297 32.8408 73.4848 32.9264 73.6235 33.0242C73.7622 33.1221 73.8738 33.2444 73.9554 33.3887C74.037 33.5354 74.0778 33.7116 74.0778 33.9195C74.0778 34.1836 74.0098 34.4136 73.8738 34.6044C73.7378 34.7952 73.5555 34.9419 73.3243 35.0471C73.093 35.1523 72.8319 35.2036 72.5408 35.2036C72.2497 35.2036 72.0212 35.1718 71.809 35.1083C71.5968 35.0447 71.42 34.9762 71.2812 34.9028C71.1398 34.8294 71.0391 34.7756 70.9766 34.7389L71.05 34.6215C71.1507 34.6875 71.2785 34.756 71.4336 34.827C71.5886 34.8979 71.7573 34.959 71.945 35.0104C72.13 35.0593 72.3204 35.0862 72.5136 35.0862C72.7503 35.0862 72.9761 35.0447 73.1937 34.959C73.4113 34.8734 73.5881 34.7462 73.7269 34.575C73.8656 34.4038 73.9336 34.1885 73.9336 33.9268C73.9336 33.6651 73.8656 33.4645 73.7296 33.3104C73.5936 33.1563 73.4222 33.0316 73.2127 32.9386C73.0033 32.8457 72.7829 32.76 72.549 32.6818C72.3803 32.6304 72.2143 32.5717 72.0566 32.5081C71.8988 32.4445 71.7546 32.3711 71.6267 32.2904C71.4989 32.2097 71.3955 32.107 71.3193 31.9895C71.2432 31.8721 71.2024 31.7327 71.2024 31.5737C71.2024 31.3707 71.2622 31.1921 71.3819 31.0405C71.5016 30.8888 71.6648 30.769 71.8716 30.6834C72.0783 30.5953 72.3068 30.5537 72.5626 30.5537C72.7448 30.5537 72.9597 30.5782 73.2046 30.6246C73.4494 30.6736 73.6562 30.7323 73.8303 30.8081L73.7731 30.9059L73.7759 30.901Z" fill="#010FAD"/>
<path d="M72.5442 35.4124C72.245 35.4124 71.9729 35.3757 71.7362 35.3072C71.5077 35.2412 71.3146 35.1654 71.1622 35.0822C71.0208 35.0064 70.9174 34.9526 70.8521 34.9159L70.6562 34.8058L70.9718 34.2946L71.1922 34.4365C71.2847 34.4952 71.4016 34.5588 71.5458 34.6248C71.6873 34.6908 71.8451 34.7471 72.0137 34.7911C72.3701 34.8865 72.7564 34.8816 73.0992 34.7471C73.276 34.6786 73.4174 34.5759 73.5317 34.434C73.6405 34.2995 73.6922 34.1283 73.6922 33.913C73.6922 33.6978 73.6405 33.5461 73.5426 33.4311C73.4283 33.3015 73.2869 33.1988 73.1073 33.1205C72.906 33.03 72.6911 32.9468 72.468 32.871C72.3021 32.8196 72.128 32.7585 71.962 32.6949C71.7879 32.6264 71.6274 32.5457 71.4887 32.4552C71.3336 32.3549 71.2085 32.2326 71.1133 32.0882C71.0153 31.9366 70.9636 31.7605 70.9636 31.5599C70.9636 31.3104 71.0398 31.0878 71.1894 30.8995C71.3336 30.7185 71.5295 30.5741 71.7716 30.4714C72.1715 30.3026 72.6231 30.2733 73.2597 30.398C73.5208 30.4494 73.7493 30.5154 73.937 30.5962L74.1656 30.694L73.8826 31.171L73.6786 31.0927C73.5562 31.0462 73.3875 30.9949 73.1808 30.9435C72.9849 30.8946 72.7836 30.8701 72.5796 30.8701C72.264 30.8701 72.0219 30.9386 71.8423 31.0756C71.671 31.2077 71.5921 31.3544 71.5921 31.5452C71.5921 31.6822 71.6329 31.7898 71.7145 31.873C71.8151 31.9757 71.9512 32.0638 72.1171 32.1347C72.3075 32.2154 72.5143 32.2962 72.7319 32.372C72.9033 32.4282 73.0828 32.4943 73.2597 32.5652C73.4446 32.6411 73.616 32.734 73.7711 32.8416C73.9398 32.959 74.0731 33.1058 74.171 33.2795C74.2689 33.4556 74.3206 33.6659 74.3206 33.9081C74.3206 34.2139 74.239 34.4829 74.0812 34.708C73.9234 34.933 73.7058 35.1067 73.4338 35.229C73.1699 35.3488 72.8706 35.4075 72.5442 35.4075V35.4124Z" fill="#010FAD"/>
<g clip-path="url(#clip0_451_1458)">
<path d="M24.5437 23.0221V20.7032C24.5437 19.6319 23.6747 18.7629 22.601 18.7629H21.0392C21.5939 18.0391 22.0558 17.2487 22.4272 16.394C23.0176 15.0322 23.3128 13.5728 23.3128 12.0109C23.3128 10.4491 23.0176 9.05399 22.4272 7.69218C21.8367 6.33274 21.0177 5.12567 19.9678 4.07574C18.9179 3.02819 17.7108 2.19967 16.3514 1.60209C14.9896 1.00213 13.542 0.702148 12.0017 0.702148C10.4613 0.702148 8.98042 1.00213 7.62099 1.60209C6.26155 2.19967 5.06639 3.02819 4.0355 4.07574C3.00462 5.12567 2.19991 6.33274 1.61899 7.69218C1.04046 9.05399 0.75 10.492 0.75 12.0109C0.75 13.5299 1.04046 15.0322 1.61899 16.394C2.19991 17.7534 3.00462 18.9486 4.0355 19.9795C5.06639 21.008 6.26155 21.8127 7.62099 22.3936C8.89471 22.9364 10.2542 23.2221 11.6993 23.2602H11.7088C11.8041 23.2626 11.8993 23.2626 11.9945 23.2626H24.5437V23.0245H14.3467C14.3467 23.0245 14.3539 23.0221 14.3586 23.0221H24.5437ZM9.43516 18.4915C8.60664 18.132 7.87573 17.6273 7.24482 16.9773C6.61629 16.3273 6.12584 15.5774 5.77587 14.7274C5.42589 13.8775 5.24971 12.9728 5.24971 12.0109C5.24971 11.0491 5.41875 10.1492 5.76158 9.29922C6.09966 8.44689 6.58058 7.70408 7.19959 7.06364C7.82097 6.42083 8.53998 5.92324 9.36135 5.56136C10.1803 5.20186 11.0708 5.0233 12.0326 5.0233C12.9945 5.0233 13.8801 5.20186 14.7015 5.56136C15.5205 5.92324 16.2371 6.42083 16.8466 7.06364C17.4561 7.70408 17.937 8.44689 18.287 9.29922C18.6369 10.1492 18.8107 11.0539 18.8107 12.0109C18.8107 12.968 18.6417 13.9084 18.3036 14.7584C17.9608 15.6083 17.4918 16.3535 16.8918 16.9916C16.2919 17.632 15.5871 18.132 14.7753 18.4915C13.9658 18.8534 13.0921 19.0343 12.1516 19.0343C11.2112 19.0343 10.2661 18.8534 9.43516 18.4915Z" fill="#010FAD"/>
<path d="M56.9066 8.16034C56.4614 6.77234 55.7591 5.51528 54.7996 4.39392C53.8378 3.27018 52.5712 2.37262 50.9927 1.69885C49.4166 1.02509 47.5049 0.687015 45.2622 0.687015H42.9242V0.667969H38.5888V14.7385C38.5888 15.4456 38.3816 16.1241 37.9674 16.7693C37.5531 17.4169 36.9913 17.943 36.2842 18.3478C35.5771 18.7525 34.7676 18.9525 33.8581 18.9525C33.0296 18.9525 32.2654 18.7525 31.5678 18.3478C30.8702 17.943 30.3107 17.4169 29.8846 16.7693C29.4608 16.1241 29.2489 15.4456 29.2489 14.7385V0.667969H24.8516V14.829C24.8516 16.467 25.2563 17.9169 26.0658 19.1811C26.8729 20.4453 27.9609 21.4357 29.3251 22.1523C30.6893 22.8713 32.2011 23.2284 33.8581 23.2284C33.92 23.2284 33.9843 23.2284 34.0462 23.226H46.3526C47.8691 23.226 49.3048 22.9784 50.6594 22.4761C52.0141 21.9761 53.2069 21.2524 54.2378 20.3024C55.2687 19.3525 56.0829 18.2097 56.6781 16.8717C57.2757 15.5361 57.5733 14.029 57.5733 12.3553C57.5733 10.9459 57.3519 9.54835 56.9066 8.16034ZM52.495 15.0361C52.1403 15.9027 51.6356 16.6217 50.9785 17.1931C50.3214 17.7669 49.5381 18.2002 48.6286 18.4954C47.7191 18.7906 46.7073 18.9406 45.5955 18.9406H42.9885V8.55794C42.9885 7.56038 43.3885 6.65568 44.036 6.00334C44.6836 5.34862 45.5788 4.94388 46.5668 4.94388C47.0716 4.94388 47.6882 5.0415 48.4167 5.23434C49.1429 5.42957 49.8571 5.78193 50.5547 6.29142C51.2499 6.80329 51.8379 7.52229 52.3117 8.4508C52.7879 9.37931 53.0259 10.5792 53.0259 12.0482C53.0259 13.1719 52.8474 14.1671 52.495 15.0361Z" fill="#010FAD"/>
<path d="M62.9286 7.58266V9.70871H72.5089V13.9537H62.9286V18.7748H73.7422V23.0221H58.5312V0.702148H73.7541V4.94949H65.5617C64.1071 4.94949 62.9286 6.12799 62.9286 7.58266Z" fill="#010FAD"/>
<path d="M82.3065 4.94907H90.3869V0.704102H75.1641V23.0217H90.375V18.7768H79.5614V13.9556H89.1417V9.71067H79.5614V7.69651C79.5614 6.17994 80.7899 4.94907 82.3065 4.94907Z" fill="#010FAD"/>
</g>
<defs>
<clipPath id="clip0_451_1458">
<rect width="89.6371" height="22.5938" fill="white" transform="translate(0.75 0.667969)"/>
</clipPath>
</defs>
</svg>
