<svg width="68" height="68" viewBox="0 0 68 68" fill="none" xmlns="http://www.w3.org/2000/svg">
<g clip-path="url(#clip0_6_539)">
<path d="M60.1198 51.4385C60.1198 50.7783 60.6615 50.2432 61.3298 50.2432H62.5399C63.2082 50.2432 63.75 50.7783 63.75 51.4385C63.75 52.0986 63.2082 52.6338 62.5399 52.6338H61.3298C60.6615 52.6338 60.1198 52.0986 60.1198 51.4385Z" fill="#010FAD"/>
<path d="M25.0277 14.3838H30.9061L29.1947 16.0742C28.7409 16.5225 28.1253 16.7744 27.4835 16.7744H25.0277C15.6715 16.7744 8.08676 24.2666 8.08676 33.5088C8.08676 42.7509 15.6715 50.2432 25.0277 50.2432H44.3888C53.7451 50.2432 61.3298 42.7509 61.3298 33.5088C61.3298 24.2666 53.7451 16.7744 44.3888 16.7744H37.1462C36.1834 16.7744 35.2601 17.1522 34.5793 17.8247L32.5744 19.8052C31.4398 20.926 29.9007 21.5557 28.2961 21.5557H25.0277C18.3447 21.5557 12.927 26.9072 12.927 33.5088C12.927 40.1104 18.3447 45.4619 25.0277 45.4619H44.3888C51.0719 45.4619 56.4895 40.1104 56.4895 33.5088C56.4895 26.9072 51.0719 21.5557 44.3888 21.5557H39.7384C38.7756 21.5557 37.8522 21.9335 37.1714 22.6059L35.1665 24.5864C34.0318 25.7072 32.4929 26.3369 30.8882 26.3369H25.0277C21.018 26.3369 17.7673 29.5479 17.7673 33.5088C17.7673 37.4697 21.018 40.6807 25.0277 40.6807H44.3888C48.3986 40.6807 51.6493 37.4697 51.6493 33.5088C51.6493 29.5962 48.4774 26.4153 44.5352 26.3383L44.5344 26.3369H42.7636C41.8008 26.3369 40.8774 26.7147 40.1966 27.3872L38.1916 29.3677C37.2607 30.2874 36.0575 30.8763 34.7691 31.0581L34.7083 31.1182H25.0277C23.6911 31.1182 22.6076 32.1885 22.6076 33.5088C22.6076 34.8291 23.6911 35.8994 25.0277 35.8994H44.3888C45.7254 35.8994 46.809 34.8291 46.809 33.5088C46.809 32.1885 45.7254 31.1182 44.3888 31.1182H39.5486L41.2599 29.4277C41.7137 28.9794 42.3293 28.7275 42.9711 28.7275H44.3888C47.062 28.7275 49.2291 30.8682 49.2291 33.5088C49.2291 36.1494 47.062 38.29 44.3888 38.29H25.0277C22.3545 38.29 20.1875 36.1494 20.1875 33.5088C20.1875 30.8682 22.3545 28.7275 25.0277 28.7275H33.9134C34.8762 28.7275 35.7996 28.3497 36.4804 27.6773L38.4854 25.6968C39.62 24.576 41.1589 23.9463 42.7636 23.9463H44.9939V23.9646C50.0585 24.2731 54.0694 28.4283 54.0694 33.5088C54.0694 38.79 49.7352 43.0713 44.3888 43.0713H25.0277C19.6814 43.0713 15.3472 38.79 15.3472 33.5088C15.3472 28.2275 19.6814 23.9463 25.0277 23.9463H30.8882C31.8511 23.9463 32.7744 23.5685 33.4552 22.896L35.4602 20.9156C36.5948 19.7947 38.1338 19.165 39.7384 19.165H44.3888C52.4085 19.165 58.9097 25.5869 58.9097 33.5088C58.9097 41.4307 52.4085 47.8525 44.3888 47.8525H25.0277C17.0081 47.8525 10.5069 41.4307 10.5069 33.5088C10.5069 25.5869 17.0081 19.165 25.0277 19.165H28.2961C29.2589 19.165 30.1822 18.7872 30.8631 18.1148L32.868 16.1343C34.0027 15.0135 35.5416 14.3838 37.1462 14.3838H44.3888C55.0817 14.3838 63.75 22.9463 63.75 33.5088C63.75 44.0712 55.0817 52.6338 44.3888 52.6338L25.0277 52.6338C14.3349 52.6338 5.66663 44.0712 5.66663 33.5088C5.66663 22.9463 14.3349 14.3838 25.0277 14.3838Z" fill="#010FAD"/>
</g>
<defs>
<clipPath id="clip0_6_539">
<rect width="58.0833" height="38.25" fill="white" transform="matrix(1 0 0 -1 5.66663 52.6338)"/>
</clipPath>
</defs>
</svg>
