<svg width="95" height="63" viewBox="0 0 95 63" fill="none" xmlns="http://www.w3.org/2000/svg">
<path d="M31.4861 0.267822H40.9951L38.2268 3.00239C37.4927 3.72756 36.4969 4.13501 35.4586 4.13501H31.4861C16.3509 4.13501 4.08156 16.2548 4.08156 31.2053C4.08156 46.1559 16.3509 58.2756 31.4861 58.2756H62.8055C77.9406 58.2756 90.21 46.1559 90.21 31.2053C90.21 16.2548 77.9406 4.13501 62.8055 4.13501H51.0895C49.532 4.13501 48.0384 4.74618 46.937 5.83394L43.6939 9.03767C41.8584 10.8508 39.3689 11.8694 36.7731 11.8694H31.4861C20.6752 11.8694 11.9114 20.5263 11.9114 31.2053C11.9114 41.8843 20.6752 50.5413 31.4861 50.5413H62.8055C73.6164 50.5413 82.3802 41.8843 82.3802 31.2053C82.3802 20.5263 73.6164 11.8694 62.8055 11.8694H55.2827C53.7252 11.8694 52.2316 12.4806 51.1302 13.5683L47.887 16.772C46.0515 18.5851 43.5621 19.6038 40.9663 19.6038H31.4861C24.9997 19.6038 19.7413 24.798 19.7413 31.2053C19.7413 37.6126 24.9997 42.8069 31.4861 42.8069H62.8055C69.2919 42.8069 74.5503 37.6126 74.5503 31.2053C74.5503 24.8761 69.4194 19.7306 63.0423 19.6061L63.041 19.6038H60.1764C58.6189 19.6038 57.1253 20.2149 56.0239 21.3027L52.7806 24.5064C51.2746 25.9942 49.3283 26.9469 47.2441 27.241L47.1458 27.3381H31.4861C29.3239 27.3381 27.5711 29.0696 27.5711 31.2053C27.5711 33.3411 29.3239 35.0725 31.4861 35.0725H62.8055C64.9676 35.0725 66.7204 33.3411 66.7204 31.2053C66.7204 29.0696 64.9676 27.3381 62.8055 27.3381H54.9757L57.744 24.6036C58.4781 23.8784 59.4739 23.4709 60.5121 23.4709H62.8055C67.1298 23.4709 70.6354 26.9338 70.6354 31.2053C70.6354 35.4769 67.1298 38.9397 62.8055 38.9397H31.4861C27.1618 38.9397 23.6562 35.4769 23.6562 31.2053C23.6562 26.9338 27.1618 23.4709 31.4861 23.4709H45.86C47.4175 23.4709 48.9111 22.8598 50.0125 21.772L53.2557 18.5683C55.0912 16.7552 57.5806 15.7366 60.1764 15.7366H63.7842V15.7663C71.9769 16.2653 78.4652 22.9869 78.4652 31.2053C78.4652 39.7484 71.4541 46.6741 62.8055 46.6741H31.4861C22.8375 46.6741 15.8263 39.7484 15.8263 31.2053C15.8263 22.6621 22.8375 15.7366 31.4861 15.7366H40.9663C42.5238 15.7366 44.0174 15.1254 45.1188 14.0376L48.3621 10.8339C50.1976 9.02082 52.687 8.0022 55.2827 8.0022H62.8055C75.7785 8.0022 86.2951 18.3905 86.2951 31.2053C86.2951 44.0201 75.7785 54.4084 62.8055 54.4084H31.4861C18.5131 54.4084 7.99649 44.0201 7.99649 31.2053C7.99649 18.3905 18.5131 8.0022 31.4861 8.0022H36.7731C38.3306 8.0022 39.8242 7.39103 40.9256 6.30326L44.1689 3.09953C46.0044 1.28644 48.4938 0.267822 51.0895 0.267822H62.8055C80.1028 0.267822 94.125 14.119 94.125 31.2053C94.125 48.2916 80.1028 62.1428 62.8055 62.1428L31.4861 62.1428C14.1888 62.1428 0.166624 48.2916 0.166626 31.2053C0.166627 14.119 14.1888 0.267822 31.4861 0.267822Z" fill="#FAFAFA"/>
</svg>
