<svg width="273" height="321" viewBox="0 0 273 321" fill="none" xmlns="http://www.w3.org/2000/svg">
<g clip-path="url(#clip0_396_1171)">
<path d="M-35.1484 185.52L13.8209 179.653C13.8209 179.653 47.3998 176.855 66.0548 177.788C73.0691 178.142 79.9341 180.129 86.2115 183.235C88.5061 184.373 90.7167 185.66 92.8433 187.078C94.2891 188.048 96.0054 189.064 97.1993 190.352C97.7403 190.93 98.1693 191.639 98.2906 192.422C98.757 195.221 95.455 197.077 93.1045 197.375C88.2449 197.982 84.43 194.372 84.4766 189.512C84.4766 188.747 84.6538 187.964 85.0829 187.339C85.9597 186.07 87.3494 186.182 88.6553 186.649C92.8713 188.16 95.3618 192.879 99.8949 193.616C103.169 194.148 106.359 192.73 108.952 190.837C111.181 189.214 113.476 187.628 116.003 186.49C118.028 185.585 121.124 184.419 123.326 185.24C124.846 185.809 125.592 187.264 125.788 188.794C125.937 189.979 125.741 193.626 124.809 192.693C124.65 192.338 124.809 191.76 124.809 191.154C124.809 190.594 124.715 190.025 124.492 189.503C123.904 188.094 122.449 187.833 121.068 188.029C117.654 188.514 114.399 190.697 111.582 192.544C109.913 193.644 108.29 194.82 106.695 196.023C105.062 197.245 103.299 198.289 102.04 199.931C101.089 201.162 100.436 202.655 100.38 204.203C100.333 205.238 100.567 206.292 101.117 207.16C101.779 208.195 102.842 208.895 103.943 209.426C105.426 210.145 107.068 210.602 108.719 210.49C110.248 210.387 111.713 209.781 112.991 208.923C115.061 207.533 116.591 205.518 118.13 203.587C120.938 200.052 123.876 196.592 127.141 193.467C130.004 190.715 132.933 188.542 137.13 188.719C142.326 188.953 143.398 195.351 140.992 199.045C140.899 199.185 140.759 199.343 140.591 199.315C140.442 199.287 140.358 199.12 140.32 198.97C139.854 197.291 140.731 195.482 140.143 193.859C139.649 192.497 138.324 191.48 136.934 191.2C135.05 190.818 133.091 191.518 131.478 192.553C129.025 194.139 127.047 196.256 125.014 198.308C121.32 202.03 117.421 205.546 113.681 209.221C113.215 209.678 112.739 210.154 112.478 210.76C112.179 211.45 112.207 212.234 112.319 212.98C112.487 214.081 112.869 215.181 113.578 216.049C115.015 217.784 117.459 218.25 119.707 218.418C121.096 218.53 122.551 218.558 123.839 218.017C124.846 217.588 125.685 216.832 126.441 216.04C128.101 214.305 129.5 212.346 131.049 210.508C132.476 208.82 134.052 207.234 135.955 206.096C137.858 204.959 140.096 204.306 142.279 204.613C142.839 204.688 143.398 204.837 143.855 205.173C144.658 205.77 144.965 206.824 145.059 207.822C145.217 209.445 144.947 211.115 144.284 212.607C144.042 213.157 143.715 213.717 143.174 214.006C143.119 213.185 143.314 212.365 143.417 211.544C143.52 210.723 143.529 209.846 143.146 209.119C142.615 208.102 141.412 207.58 140.264 207.561C138.072 207.514 136.16 208.736 134.584 210.135C132.457 212.01 130.396 214.109 128.801 216.469C128.176 217.392 127.616 218.409 127.542 219.519C127.43 221.03 128.269 222.513 129.472 223.436C130.676 224.36 132.196 224.798 133.698 224.957C134.957 225.097 136.253 225.05 137.457 224.63C140.908 223.427 140.927 219.687 142.773 217.084C142.82 217.019 142.876 216.944 142.96 216.916C143.063 216.879 143.174 216.926 143.268 216.972C144.844 217.728 146.29 218.698 147.801 219.565C149.415 220.498 151.028 221.422 152.642 222.354C154.116 223.203 155.795 223.697 157.492 223.697C158.639 223.697 159.889 223.548 160.906 222.97C162.203 222.224 162.492 220.75 162.221 219.369C161.615 216.273 159.423 213.726 157.399 211.413C155.216 208.923 152.791 206.656 150.161 204.651C148.818 203.625 147.39 202.655 145.777 202.16C145.357 202.03 144.881 201.936 144.471 202.114C143.855 202.384 143.641 203.196 143.837 203.839C144.033 204.483 144.546 204.977 145.059 205.406C146.411 206.526 147.95 207.402 149.452 208.326C152.847 210.406 156.112 212.747 159.759 214.351C163.406 215.956 167.585 216.748 171.39 215.583C176.511 214.006 177.145 209.286 175.168 204.837C171.437 196.443 159.311 185.25 155.58 187.115C153.612 188.104 158.639 192.422 159.255 192.982C163.042 196.433 167.099 199.782 171.437 202.608C175.28 205.117 181.063 209.305 185.857 207.15C187.76 206.292 189.579 204.501 189.961 202.384C190.194 201.106 189.887 199.782 189.401 198.569C187.415 193.598 184.337 189.195 180.774 185.231C172.379 175.903 163.051 168.441 163.051 168.441C166.288 170.848 169.534 173.254 172.771 175.661C178.367 179.821 183.964 183.981 189.569 188.141C191.836 189.82 194.037 191.62 196.546 192.945C198.486 193.971 200.622 194.708 202.824 194.801C204.988 194.894 206.536 193.616 206.751 191.443C207.021 188.701 205.407 185.632 203.971 183.393C200.762 178.366 196.08 174.402 191.668 170.465C184.187 163.796 176.287 157.612 168.191 151.708C164.143 148.76 160.039 145.878 155.906 143.043C151.774 140.207 148.043 137.651 142.932 137.334C138.333 137.054 134.966 138.799 131.347 141.289C128.819 143.024 123.475 145.85 120.49 143.677C118.923 142.53 118.914 140.207 119.305 138.304C121.134 129.313 128.39 122.522 136.981 119.855C145.553 117.196 154.265 119.332 161.335 124.649C165.337 127.652 168.872 131.243 172.976 134.107C180.904 139.657 190.101 139.396 198.906 136.14C216.806 129.527 234.164 120.675 251.513 112.719C266.717 105.751 281.893 98.7184 297.059 91.6668C301.518 89.5868 305.986 87.5068 310.444 85.4268" stroke="#E5E5E4" stroke-miterlimit="10"/>
</g>
<defs>
<clipPath id="clip0_396_1171">
<rect width="321" height="321" fill="white" transform="translate(-23.5)"/>
</clipPath>
</defs>
</svg>
