<svg width="63" height="28" viewBox="0 0 63 28" fill="none" xmlns="http://www.w3.org/2000/svg">
<path d="M16.7007 21.9507C16.6227 21.923 16.5227 21.8941 16.3978 21.8651C16.2728 21.8361 16.1448 21.8216 16.0152 21.8216C15.8012 21.8216 15.631 21.8677 15.5014 21.9599C15.3717 22.0521 15.3077 22.1667 15.3077 22.3024C15.3077 22.4051 15.3436 22.4894 15.4139 22.5566C15.4842 22.6237 15.5763 22.6791 15.6888 22.7252C15.8012 22.7713 15.923 22.8147 16.0526 22.8569C16.1526 22.8872 16.251 22.9214 16.3478 22.9583C16.4446 22.9952 16.5336 23.0413 16.6133 23.0939C16.6929 23.1466 16.757 23.2125 16.8038 23.2902C16.8507 23.3692 16.8741 23.464 16.8741 23.576C16.8741 23.7182 16.8351 23.8421 16.757 23.9448C16.6789 24.0475 16.5742 24.1266 16.4415 24.1832C16.3088 24.2398 16.1588 24.2675 15.9917 24.2675C15.8246 24.2675 15.6934 24.2504 15.5716 24.2161C15.4498 24.1819 15.3483 24.145 15.2687 24.1055C15.1875 24.066 15.1297 24.037 15.0938 24.0172L15.1359 23.954C15.1937 23.9896 15.2671 24.0265 15.3561 24.0647C15.4451 24.1028 15.542 24.1358 15.6497 24.1634C15.7559 24.1898 15.8652 24.2043 15.9761 24.2043C16.112 24.2043 16.2416 24.1819 16.3665 24.1358C16.4915 24.0897 16.593 24.0212 16.6726 23.929C16.7523 23.8368 16.7913 23.7209 16.7913 23.58C16.7913 23.439 16.7523 23.331 16.6742 23.248C16.5961 23.1651 16.4977 23.0979 16.3775 23.0478C16.2572 22.9978 16.1307 22.9517 15.9964 22.9095C15.8996 22.8819 15.8043 22.8503 15.7137 22.816C15.6232 22.7818 15.5404 22.7423 15.467 22.6988C15.3936 22.6554 15.3343 22.6 15.2905 22.5368C15.2468 22.4736 15.2234 22.3985 15.2234 22.3129C15.2234 22.2036 15.2577 22.1074 15.3264 22.0258C15.3952 21.9441 15.4889 21.8796 15.6076 21.8335C15.7262 21.7861 15.8574 21.7637 16.0042 21.7637C16.1089 21.7637 16.2322 21.7768 16.3728 21.8019C16.5133 21.8282 16.632 21.8598 16.732 21.9006L16.6992 21.9533L16.7007 21.9507Z" fill="#010FAD"/>
<path d="M15.9901 24.3801C15.8183 24.3801 15.6621 24.3603 15.5262 24.3234C15.3951 24.2879 15.2842 24.247 15.1967 24.2022C15.1155 24.1614 15.0562 24.1324 15.0187 24.1127L14.9062 24.0534L15.0874 23.7781L15.2139 23.8545C15.2654 23.8861 15.3342 23.9204 15.4169 23.9559C15.4981 23.9915 15.5887 24.0218 15.6871 24.0455C15.8917 24.0969 16.1135 24.0942 16.3102 24.0218C16.4117 23.9849 16.4929 23.9296 16.5585 23.8532C16.621 23.7808 16.6507 23.6886 16.6507 23.5727C16.6507 23.4568 16.621 23.3751 16.5648 23.3132C16.4992 23.2434 16.418 23.1881 16.3149 23.1459C16.1993 23.0972 16.076 23.0524 15.9479 23.0116C15.8526 22.9839 15.7543 22.9523 15.6574 22.9168C15.5575 22.8799 15.4669 22.8364 15.3841 22.7877C15.2951 22.7337 15.2233 22.6678 15.1686 22.5901C15.1124 22.5084 15.0827 22.4136 15.0827 22.3056C15.0827 22.1713 15.1265 22.0514 15.2123 21.95C15.2951 21.8525 15.4076 21.7748 15.5466 21.7195C15.7761 21.6286 16.0354 21.6128 16.4008 21.68C16.5507 21.7077 16.6819 21.7432 16.7897 21.7867L16.9209 21.8394L16.7584 22.0949L16.6413 22.0527C16.571 22.0277 16.4742 22.0001 16.3555 21.9724C16.2431 21.9461 16.1275 21.9329 16.0104 21.9329C15.8292 21.9329 15.6902 21.9698 15.5872 22.0435C15.4888 22.1146 15.4419 22.195 15.4419 22.2964C15.4419 22.3702 15.4653 22.4281 15.5122 22.4729C15.57 22.5282 15.6481 22.5756 15.7433 22.6138C15.8526 22.6586 15.9713 22.7007 16.0963 22.7416C16.1947 22.7719 16.2977 22.8074 16.3992 22.8456C16.5054 22.8865 16.6038 22.9365 16.6928 22.9945C16.7897 23.0577 16.8662 23.1367 16.9224 23.2302C16.9786 23.3251 17.0083 23.4383 17.0083 23.5687C17.0083 23.7334 16.9615 23.8782 16.8709 23.9994C16.7803 24.1206 16.6554 24.2141 16.4992 24.28C16.3477 24.3445 16.1759 24.3761 15.9885 24.3761L15.9901 24.3801Z" fill="#010FAD"/>
<path d="M19.6719 21.7676H21.4147V21.8348H19.7546V22.9543H21.2523V23.0215H19.7546V24.1647H21.4725V24.2319H19.6719V21.7689V21.7676Z" fill="#010FAD"/>
<path d="M21.6177 24.3445H19.5391V21.6484H21.5599V21.9487H19.8998V22.8338H21.3975V23.1341H19.8998V24.0442H21.6177V24.3445Z" fill="#010FAD"/>
<path d="M24.9528 21.7812C25.0356 21.7812 25.1262 21.7931 25.2246 21.8168C25.3229 21.8405 25.4166 21.8774 25.5025 21.9288C25.59 21.9801 25.6618 22.0473 25.7165 22.1303C25.7712 22.2133 25.7993 22.316 25.7993 22.4372C25.7993 22.5254 25.7821 22.6123 25.7493 22.6953C25.7165 22.7783 25.6634 22.8521 25.5931 22.9179C25.5228 22.9838 25.4307 23.0351 25.3167 23.0746C25.2027 23.1128 25.0637 23.1326 24.8966 23.1326H24.4343V24.2442H24.3516V21.7812H24.9513H24.9528ZM24.8857 23.0641C25.0528 23.0641 25.1886 23.0457 25.2948 23.0075C25.401 22.9706 25.4854 22.9205 25.5463 22.86C25.6072 22.7994 25.6509 22.7322 25.6775 22.6584C25.704 22.5847 25.7165 22.5122 25.7165 22.4398C25.7165 22.3529 25.6962 22.2725 25.6556 22.2001C25.615 22.1276 25.5603 22.0631 25.4916 22.0104C25.4229 21.9577 25.3417 21.9169 25.2511 21.8893C25.159 21.8616 25.0606 21.8471 24.9559 21.8471H24.4359V23.0641H24.8857ZM25.2683 23.0681L26.1038 24.2429H26.0085L25.173 23.0681H25.2683Z" fill="#010FAD"/>
<path d="M26.3552 24.3595H25.9351L25.1339 23.2347C25.0621 23.244 24.9855 23.2479 24.9028 23.2479H24.5795V24.3595H24.2188V21.6621H24.9559C25.0511 21.6621 25.1558 21.6753 25.2667 21.7016C25.3791 21.728 25.4869 21.7714 25.5868 21.8307C25.6914 21.8913 25.7773 21.9729 25.8429 22.0704C25.9101 22.1705 25.9444 22.2943 25.9444 22.4352C25.9444 22.5367 25.9257 22.6354 25.8867 22.7303C25.8476 22.8291 25.7851 22.9173 25.7024 22.995C25.643 23.0503 25.5696 23.0977 25.4853 23.1373L26.3552 24.3595ZM24.5811 22.9463H24.8918C25.0386 22.9463 25.1589 22.9305 25.2479 22.8989C25.3338 22.8686 25.401 22.8304 25.4478 22.7843C25.4962 22.7355 25.5306 22.6829 25.5524 22.6249C25.5743 22.563 25.5868 22.5011 25.5868 22.4392C25.5868 22.3694 25.5712 22.3062 25.5384 22.2482C25.5056 22.1889 25.4634 22.1389 25.4072 22.0968C25.351 22.0533 25.287 22.0217 25.212 21.998C25.1355 21.9743 25.0527 21.9624 24.9637 21.9624H24.5826V22.945L24.5811 22.9463Z" fill="#010FAD"/>
<path d="M28.8906 21.6484H28.8047L29.9229 23.8836L29.926 23.8783L28.889 21.6484H28.8906ZM29.9276 23.8783V23.8836L29.9869 23.7571L29.9276 23.877V23.8783ZM30.9583 21.6484L29.9853 23.7571L31.0395 21.6484H30.9567H30.9583Z" fill="#010FAD"/>
<path d="M31.194 21.6484L29.9212 24.3459L28.6484 21.6484H29.0373L29.9244 23.5609L30.8067 21.6484H31.194Z" fill="#010FAD"/>
<path d="M33.9141 21.7676H33.9967V24.2306H33.9141V21.7676Z" fill="#010FAD"/>
<path d="M34.1419 21.6484H33.7812V24.3459H34.1419V21.6484Z" fill="#010FAD"/>
<path d="M39.1004 24.0827C39.0286 24.1182 38.9521 24.1485 38.8693 24.1762C38.7881 24.2025 38.7006 24.2236 38.61 24.2394C38.5179 24.2552 38.4226 24.2618 38.3227 24.2618C38.1009 24.2618 37.8995 24.2289 37.7167 24.163C37.5356 24.0972 37.3794 24.0076 37.2482 23.893C37.117 23.7784 37.0187 23.6454 36.9484 23.4953C36.8797 23.3438 36.8438 23.1844 36.8438 23.0158C36.8438 22.838 36.8812 22.6721 36.9578 22.518C37.0343 22.3639 37.1405 22.2282 37.2763 22.1123C37.4122 21.9964 37.5699 21.9055 37.7511 21.841C37.9307 21.7751 38.1244 21.7422 38.3289 21.7422C38.4711 21.7422 38.6054 21.758 38.735 21.7896C38.8646 21.8212 38.9849 21.8647 39.0989 21.9213L39.0567 21.9806C38.9505 21.9266 38.8365 21.8844 38.7131 21.8541C38.5897 21.8238 38.4617 21.808 38.3289 21.808C38.1368 21.808 37.9572 21.8397 37.7855 21.9016C37.6152 21.9635 37.4653 22.0504 37.3388 22.161C37.2107 22.2717 37.1108 22.4007 37.0374 22.5469C36.964 22.6931 36.9265 22.8499 36.9265 23.0185C36.9265 23.1752 36.9593 23.3253 37.0249 23.4676C37.0905 23.6098 37.1842 23.7363 37.306 23.8443C37.4278 23.9536 37.5746 24.0379 37.7449 24.0998C37.9151 24.1617 38.1072 24.1933 38.3211 24.1933C38.457 24.1933 38.5866 24.1775 38.7084 24.1459C38.8302 24.1143 38.9442 24.0721 39.0489 24.0208L39.0989 24.08L39.1004 24.0827Z" fill="#010FAD"/>
<path d="M38.3289 24.3763C38.0884 24.3763 37.8666 24.3394 37.6683 24.2683C37.4699 24.1972 37.2981 24.0971 37.1545 23.9719C37.0108 23.8468 36.9015 23.6993 36.8249 23.5347C36.75 23.3713 36.7109 23.1962 36.7109 23.0131C36.7109 22.8208 36.7531 22.6377 36.8359 22.4705C36.9186 22.3032 37.0358 22.1543 37.1841 22.0279C37.3325 21.9015 37.5058 21.8014 37.7026 21.7302C38.0353 21.6091 38.4351 21.5906 38.7802 21.6749C38.9192 21.7092 39.0535 21.7566 39.1753 21.8185L39.2956 21.8778L39.1128 22.1412L38.9926 22.0793C38.8973 22.0305 38.7943 21.9923 38.6818 21.9647C38.4132 21.8988 38.1071 21.9133 37.8479 22.0068C37.6948 22.0621 37.5589 22.1412 37.4449 22.24C37.3294 22.3401 37.2372 22.4586 37.1716 22.5903C37.1061 22.722 37.0717 22.8643 37.0717 23.017C37.0717 23.1593 37.1014 23.295 37.1607 23.424C37.2185 23.5518 37.3044 23.6664 37.4121 23.7625C37.5199 23.8587 37.6526 23.9364 37.8041 23.9917C37.9556 24.047 38.1321 24.0747 38.3257 24.0747C38.4476 24.0747 38.5631 24.0602 38.6724 24.0325C38.7833 24.0036 38.8895 23.9654 38.9848 23.9193L39.0957 23.8653L39.3065 24.1181L39.1753 24.1827C39.0972 24.2209 39.0129 24.2538 38.9254 24.2828C38.8364 24.3118 38.7412 24.3355 38.6412 24.3513C38.5413 24.3684 38.4351 24.3763 38.3273 24.3763H38.3289Z" fill="#010FAD"/>
<path d="M41.9531 21.7676H43.696V21.8348H42.0359V22.9543H43.5336V23.0215H42.0359V24.1647H43.7538V24.2319H41.9531V21.7689V21.7676Z" fill="#010FAD"/>
<path d="M43.8989 24.3445H41.8203V21.6484H43.8412V21.9487H42.1811V22.8338H43.6788V23.1341H42.1811V24.0442H43.8989V24.3445Z" fill="#010FAD"/>
<path d="M48.0211 21.9507C47.943 21.923 47.843 21.8941 47.7181 21.8651C47.5932 21.8361 47.4651 21.8216 47.3355 21.8216C47.1215 21.8216 46.9513 21.8677 46.8217 21.9599C46.692 22.0521 46.628 22.1667 46.628 22.3024C46.628 22.4051 46.6639 22.4894 46.7342 22.5566C46.8045 22.6237 46.8966 22.6791 47.0091 22.7252C47.1215 22.7713 47.2433 22.8147 47.3729 22.8569C47.4729 22.8872 47.5713 22.9214 47.6681 22.9583C47.7649 22.9952 47.854 23.0413 47.9336 23.0939C48.0132 23.1466 48.0773 23.2125 48.1241 23.2902C48.171 23.3692 48.1944 23.464 48.1944 23.576C48.1944 23.7182 48.1554 23.8421 48.0773 23.9448C47.9992 24.0475 47.8946 24.1266 47.7618 24.1832C47.6291 24.2398 47.4791 24.2675 47.312 24.2675C47.1449 24.2675 47.0138 24.2504 46.8919 24.2161C46.7701 24.1819 46.6686 24.145 46.589 24.1055C46.5078 24.066 46.45 24.037 46.4141 24.0172L46.4562 23.954C46.514 23.9896 46.5874 24.0265 46.6764 24.0647C46.7654 24.1028 46.8623 24.1358 46.97 24.1634C47.0762 24.1898 47.1855 24.2043 47.2964 24.2043C47.4323 24.2043 47.5619 24.1819 47.6869 24.1358C47.8118 24.0897 47.9133 24.0212 47.9929 23.929C48.0726 23.8368 48.1116 23.7209 48.1116 23.58C48.1116 23.439 48.0726 23.331 47.9945 23.248C47.9164 23.1651 47.818 23.0979 47.6978 23.0478C47.5775 22.9978 47.451 22.9517 47.3167 22.9095C47.2199 22.8819 47.1246 22.8503 47.0341 22.816C46.9435 22.7818 46.8607 22.7423 46.7873 22.6988C46.7139 22.6554 46.6546 22.6 46.6108 22.5368C46.5671 22.4736 46.5437 22.3985 46.5437 22.3129C46.5437 22.2036 46.578 22.1074 46.6468 22.0258C46.7155 21.9441 46.8092 21.8796 46.9279 21.8335C47.0466 21.7861 47.1777 21.7637 47.3245 21.7637C47.4292 21.7637 47.5525 21.7768 47.6931 21.8019C47.8337 21.8282 47.9523 21.8598 48.0523 21.9006L48.0195 21.9533L48.0211 21.9507Z" fill="#010FAD"/>
<path d="M47.3104 24.3801C47.1386 24.3801 46.9824 24.3603 46.8466 24.3234C46.7154 24.2879 46.6045 24.247 46.517 24.2022C46.4358 24.1614 46.3765 24.1324 46.339 24.1127L46.2266 24.0534L46.4077 23.7781L46.5342 23.8545C46.5873 23.8861 46.6545 23.9204 46.7372 23.9559C46.8184 23.9915 46.909 24.0218 47.0059 24.0455C47.2104 24.0969 47.4322 24.0942 47.629 24.0218C47.7305 23.9849 47.8117 23.9296 47.8773 23.8532C47.9398 23.7808 47.9694 23.6886 47.9694 23.5727C47.9694 23.4568 47.9398 23.3751 47.8835 23.3132C47.8179 23.2434 47.7367 23.1881 47.6337 23.1459C47.5181 23.0972 47.3947 23.0524 47.2667 23.0116C47.1714 22.9839 47.0714 22.951 46.9762 22.9168C46.8762 22.8799 46.7841 22.8364 46.7044 22.7877C46.6154 22.7337 46.5436 22.6678 46.4889 22.5901C46.4327 22.5084 46.403 22.4136 46.403 22.3056C46.403 22.1713 46.4468 22.0514 46.5327 21.95C46.6154 21.8525 46.7279 21.7748 46.8669 21.7195C47.0964 21.6286 47.3557 21.6128 47.7211 21.68C47.871 21.7077 48.0022 21.7432 48.11 21.7867L48.2412 21.8394L48.0787 22.0962L47.9616 22.0541C47.8913 22.029 47.7945 22.0014 47.6758 21.9737C47.5634 21.9474 47.4478 21.9342 47.3307 21.9342C47.1495 21.9342 47.0105 21.9711 46.9075 22.0448C46.8091 22.116 46.7638 22.195 46.7638 22.2977C46.7638 22.3715 46.7872 22.4294 46.8341 22.4742C46.8918 22.5295 46.9699 22.5769 47.0652 22.6151C47.1745 22.6586 47.2932 22.7021 47.4181 22.7429C47.5165 22.7732 47.6196 22.8088 47.7211 22.8469C47.8273 22.8878 47.9257 22.9378 48.0147 22.9958C48.1115 23.059 48.1881 23.138 48.2443 23.2315C48.3005 23.3264 48.3302 23.4396 48.3302 23.57C48.3302 23.7347 48.2833 23.8796 48.1928 24.0007C48.1022 24.1219 47.9772 24.2154 47.8211 24.2813C47.6696 24.3458 47.4978 24.3774 47.3104 24.3774V24.3801Z" fill="#010FAD"/>
<g clip-path="url(#clip0_561_4330)">
<path d="M19.7531 18.8153V17.4841C19.7531 16.869 19.2542 16.3702 18.6378 16.3702H17.7412C18.0597 15.9547 18.3248 15.5009 18.5381 15.0102C18.877 14.2285 19.0465 13.3906 19.0465 12.494C19.0465 11.5974 18.877 10.7965 18.5381 10.0147C18.1991 9.23433 17.7289 8.54138 17.1262 7.93865C16.5235 7.33727 15.8305 6.86164 15.0501 6.51859C14.2683 6.17416 13.4373 6.00195 12.553 6.00195C11.6687 6.00195 10.8186 6.17416 10.0382 6.51859C9.25779 6.86164 8.57168 7.33727 7.97987 7.93865C7.38807 8.54138 6.9261 9.23433 6.59262 10.0147C6.26049 10.7965 6.09375 11.6221 6.09375 12.494C6.09375 13.366 6.26049 14.2285 6.59262 15.0102C6.9261 15.7907 7.38807 16.4768 7.97987 17.0686C8.57168 17.659 9.25779 18.121 10.0382 18.4545C10.7694 18.7661 11.5498 18.9301 12.3795 18.952H12.3849C12.4396 18.9533 12.4943 18.9533 12.5489 18.9533H19.7531V18.8167H13.8993C13.8993 18.8167 13.9034 18.8153 13.9061 18.8153H19.7531ZM11.0797 16.2143C10.604 16.008 10.1844 15.7182 9.82226 15.3451C9.46143 14.972 9.17988 14.5414 8.97897 14.0535C8.77806 13.5656 8.67692 13.0462 8.67692 12.494C8.67692 11.9419 8.77396 11.4252 8.97077 10.9373C9.16485 10.448 9.44093 10.0216 9.79629 9.65392C10.153 9.2849 10.5658 8.99925 11.0373 8.7915C11.5075 8.58512 12.0186 8.48261 12.5708 8.48261C13.123 8.48261 13.6314 8.58512 14.1029 8.7915C14.5731 8.99925 14.9845 9.2849 15.3344 9.65392C15.6843 10.0216 15.9604 10.448 16.1613 10.9373C16.3622 11.4252 16.462 11.9446 16.462 12.494C16.462 13.0435 16.3649 13.5833 16.1708 14.0713C15.974 14.5592 15.7048 14.987 15.3604 15.3533C15.0159 15.7209 14.6114 16.008 14.1453 16.2143C13.6806 16.4221 13.179 16.526 12.6391 16.526C12.0993 16.526 11.5567 16.4221 11.0797 16.2143Z" fill="#010FAD"/>
<path d="M38.3317 10.2836C38.0761 9.48678 37.6729 8.76514 37.1221 8.12139C36.5699 7.47629 35.8428 6.96102 34.9367 6.57423C34.0319 6.18744 32.9344 5.99336 31.6469 5.99336H30.3047V5.98242H27.8159V14.0599C27.8159 14.4659 27.697 14.8554 27.4591 15.2258C27.2213 15.5975 26.8988 15.8996 26.4928 16.1319C26.0869 16.3643 25.6222 16.4791 25.1001 16.4791C24.6245 16.4791 24.1858 16.3643 23.7853 16.1319C23.3848 15.8996 23.0637 15.5975 22.819 15.2258C22.5757 14.8554 22.4541 14.4659 22.4541 14.0599V5.98242H19.9297V14.1119C19.9297 15.0522 20.162 15.8846 20.6267 16.6103C21.0901 17.3361 21.7147 17.9046 22.4978 18.316C23.281 18.7288 24.1489 18.9338 25.1001 18.9338C25.1357 18.9338 25.1726 18.9338 25.2081 18.9324H32.2729C33.1435 18.9324 33.9676 18.7903 34.7453 18.5019C35.523 18.2149 36.2077 17.7994 36.7995 17.2541C37.3914 16.7087 37.8588 16.0527 38.2005 15.2846C38.5435 14.5178 38.7144 13.6527 38.7144 12.6918C38.7144 11.8827 38.5873 11.0804 38.3317 10.2836ZM35.7991 14.2308C35.5954 14.7283 35.3057 15.141 34.9285 15.4691C34.5512 15.7985 34.1016 16.0472 33.5795 16.2167C33.0574 16.3862 32.4765 16.4723 31.8382 16.4723H30.3416V10.5118C30.3416 9.93918 30.5712 9.41981 30.943 9.04532C31.3148 8.66946 31.8287 8.43711 32.3959 8.43711C32.6856 8.43711 33.0396 8.49315 33.4578 8.60386C33.8747 8.71593 34.2847 8.91821 34.6852 9.2107C35.0843 9.50455 35.4219 9.91731 35.6938 10.4503C35.9672 10.9834 36.1039 11.6722 36.1039 12.5155C36.1039 13.1606 36.0014 13.7319 35.7991 14.2308Z" fill="#010FAD"/>
<path d="M41.79 9.95188V11.1724H47.2898V13.6093H41.79V16.377H47.9978V18.8153H39.2656V6.00195H48.0047V8.44024H43.3017C42.4666 8.44024 41.79 9.11679 41.79 9.95188Z" fill="#010FAD"/>
<path d="M52.9128 8.43888H57.5515V6.00195H48.8125V18.8139H57.5447V16.377H51.3369V13.6093H56.8367V11.1724H51.3369V10.0161C51.3369 9.14549 52.0421 8.43888 52.9128 8.43888Z" fill="#010FAD"/>
</g>
<defs>
<clipPath id="clip0_561_4330">
<rect width="51.4583" height="12.9705" fill="white" transform="translate(6.09375 5.98047)"/>
</clipPath>
</defs>
</svg>
