<svg width="75" height="75" viewBox="0 0 75 75" fill="none" xmlns="http://www.w3.org/2000/svg">
<path d="M34.2966 42.1778C40.6316 48.7078 43.1416 57.5228 41.8866 65.8728C32.9966 67.4928 23.4966 64.7928 16.7316 57.8228C10.3966 51.2928 7.8866 42.4778 9.1416 34.1278C18.0316 32.5078 27.5316 35.2078 34.2966 42.1778Z" fill="#414BC1"/>
<path d="M58.4434 56.6872C52.3934 63.4772 43.7784 66.6222 35.3634 65.9722C33.1034 57.2222 35.1084 47.5522 41.5684 40.3022C47.6184 33.5122 56.2334 30.3672 64.6484 31.0172C66.9084 39.7672 64.9034 49.4372 58.4434 56.6872Z" stroke="#414BC1" stroke-width="0.5" stroke-miterlimit="10"/>
<path d="M37.2578 73.498C57.1401 73.498 73.2578 57.3803 73.2578 37.498C73.2578 17.6158 57.1401 1.49805 37.2578 1.49805C17.3756 1.49805 1.25781 17.6158 1.25781 37.498C1.25781 57.3803 17.3756 73.498 37.2578 73.498Z" stroke="#414BC1" stroke-width="1.8" stroke-miterlimit="10"/>
<path d="M18.8336 24.1129L15.8496 21.0012L16.3326 20.538L20.2454 21.2771L19.6733 21.4489L19.9515 21.1822L17.896 19.0387L18.4308 18.5259L21.4148 21.6376L20.9339 22.0987L17.0191 21.3574L17.5911 21.1856L17.3129 21.4523L19.3705 23.5979L18.8336 24.1129Z" fill="#414BC1"/>
<path d="M24.5691 19.5899C24.205 19.8038 23.8452 19.909 23.4896 19.9054C23.1347 19.8991 22.8003 19.7919 22.4862 19.5837C22.1721 19.3755 21.898 19.0722 21.6639 18.6738L21.6609 18.6687C21.4257 18.2685 21.2942 17.8815 21.2662 17.5075C21.2389 17.1308 21.3102 16.7863 21.4801 16.4739C21.6517 16.1605 21.9169 15.8984 22.2759 15.6874C22.6365 15.4755 22.9946 15.3714 23.3502 15.375C23.7057 15.3786 24.0406 15.4844 24.3546 15.6926C24.6687 15.9008 24.9428 16.2041 25.1769 16.6025L25.18 16.6076C25.4141 17.006 25.5457 17.3931 25.5747 17.7688C25.6054 18.1435 25.5363 18.4878 25.3674 18.8019C25.1975 19.1143 24.9314 19.377 24.5691 19.5899ZM24.2315 19.0155C24.4531 18.8853 24.6112 18.7161 24.706 18.5079C24.8009 18.2997 24.8315 18.0669 24.798 17.8093C24.7662 17.5508 24.6686 17.2824 24.5051 17.0042L24.5021 16.9991C24.3376 16.7192 24.1506 16.5033 23.9413 16.3514C23.7326 16.1968 23.5147 16.1111 23.2877 16.0943C23.0597 16.0758 22.8349 16.1317 22.6134 16.2619C22.3936 16.391 22.2354 16.5602 22.1389 16.7694C22.0431 16.9759 22.011 17.2084 22.0428 17.467C22.0753 17.7228 22.1738 17.9906 22.3383 18.2706L22.3413 18.2757C22.5048 18.5539 22.69 18.7708 22.897 18.9264C23.1057 19.081 23.324 19.1676 23.552 19.1861C23.7818 19.2035 24.0083 19.1467 24.2315 19.0155Z" fill="#414BC1"/>
<path d="M27.9541 17.7021L26.6735 13.5854L27.3125 13.3866L30.4836 15.7951L29.895 15.6934L30.263 15.5789L29.3809 12.7432L30.0884 12.5231L31.369 16.6398L30.7328 16.8377L27.5609 14.4264L28.1495 14.528L27.7814 14.6425L28.6645 17.4811L27.9541 17.7021Z" fill="#414BC1"/>
<path d="M32.8585 14.9044L32.7909 14.2326L36.0608 13.9034L36.1285 14.5752L32.8585 14.9044Z" fill="#414BC1"/>
<path d="M38.8304 16.0422L39.128 12.3913L37.8058 12.2836L37.8585 11.6374L41.2711 11.9155L41.2184 12.5617L39.8963 12.454L39.5987 16.1048L38.8304 16.0422Z" fill="#414BC1"/>
<path d="M44.1883 17.0858C43.7838 16.9643 43.4621 16.772 43.2229 16.5088C42.9863 16.2443 42.8375 15.9261 42.7766 15.5543C42.7156 15.1824 42.7517 14.7752 42.8846 14.3327L42.8863 14.3269C43.0198 13.8825 43.2142 13.5228 43.4694 13.248C43.727 12.9718 44.0281 12.7899 44.3727 12.702C44.7192 12.6148 45.0918 12.631 45.4905 12.7508C45.8911 12.8711 46.2109 13.0629 46.4501 13.3261C46.6892 13.5892 46.8392 13.9067 46.9002 14.2786C46.9611 14.6505 46.9251 15.0577 46.7921 15.5002L46.7904 15.5059C46.6575 15.9485 46.4631 16.3082 46.2074 16.5849C45.9535 16.8622 45.654 17.0457 45.3089 17.1354C44.9643 17.2233 44.5908 17.2067 44.1883 17.0858ZM44.3799 16.4477C44.626 16.5216 44.8576 16.5226 45.0748 16.4505C45.2919 16.3785 45.4835 16.2426 45.6495 16.043C45.8175 15.8438 45.9479 15.5898 46.0407 15.2807L46.0424 15.275C46.1358 14.9641 46.167 14.6802 46.136 14.4234C46.1075 14.1653 46.0222 13.9473 45.8801 13.7694C45.7387 13.5897 45.5449 13.4628 45.2988 13.3889C45.0546 13.3155 44.823 13.3146 44.604 13.3861C44.3874 13.4562 44.1951 13.5908 44.0272 13.7899C43.8617 13.9877 43.7323 14.2421 43.6389 14.553L43.6371 14.5587C43.5443 14.8678 43.5112 15.1511 43.5378 15.4086C43.5663 15.6668 43.6514 15.8857 43.7928 16.0655C43.9362 16.2458 44.1319 16.3732 44.3799 16.4477Z" fill="#414BC1"/>
<path d="M47.6759 18.1676L50.2628 16.8214L49.8033 17.2684L49.9757 16.9643L49.8125 14.423L50.6052 14.8724L50.6758 16.7773L50.9851 16.9527L50.4055 16.9572L52.3752 15.8759L53.1237 16.3002L50.8101 17.4613L50.6377 17.7654L50.7827 17.1401L50.9767 20.0389L50.2048 19.6013L50.1009 17.7187L49.7942 17.5448L50.376 17.5484L48.4062 18.5816L47.6759 18.1676Z" fill="#414BC1"/>
<path d="M52.3547 21.1047L55.0426 17.7339L55.6453 18.2145L52.9573 21.5853L52.3547 21.1047Z" fill="#414BC1"/>
<path d="M55.2977 23.9845C55.0247 23.6808 54.8571 23.3574 54.795 23.0142C54.7341 22.6725 54.7749 22.3291 54.9174 21.9841C55.0626 21.6392 55.3078 21.3116 55.6529 21.0013L55.6574 20.9973C56.0039 20.6857 56.3557 20.4766 56.7125 20.37C57.0722 20.2636 57.4187 20.2587 57.7521 20.3554C58.0854 20.4521 58.3886 20.6522 58.6616 20.9559C58.88 21.1988 59.029 21.4613 59.1085 21.7433C59.1895 22.0241 59.2008 22.3018 59.1425 22.5766C59.0857 22.85 58.9597 23.0972 58.7646 23.3181L58.7449 23.3319L58.2415 22.772L58.2506 22.7598C58.3525 22.6199 58.4168 22.471 58.4436 22.3131C58.4718 22.1538 58.4625 21.996 58.4158 21.8398C58.3706 21.6823 58.2874 21.5361 58.1662 21.4013C58.0037 21.2206 57.8144 21.1069 57.5983 21.0602C57.3821 21.0134 57.1526 21.0337 56.9096 21.1209C56.6694 21.2083 56.4279 21.3612 56.185 21.5796L56.1805 21.5836C55.9376 21.802 55.7593 22.0267 55.6454 22.2576C55.533 22.49 55.4885 22.7161 55.5121 22.9359C55.5357 23.1558 55.6294 23.3568 55.7932 23.539C55.9157 23.6753 56.0493 23.7762 56.1939 23.8417C56.3398 23.9086 56.4884 23.9398 56.6395 23.9351C56.7935 23.9306 56.941 23.8891 57.082 23.8105L57.0993 23.803L57.6027 24.3629L57.5849 24.3789C57.3463 24.5425 57.0925 24.6355 56.8233 24.6579C56.5541 24.6802 56.2878 24.6358 56.0243 24.5245C55.7623 24.4118 55.5201 24.2318 55.2977 23.9845Z" fill="#414BC1"/>
</svg>
