<svg width="478" height="206" viewBox="0 0 478 206" fill="none" xmlns="http://www.w3.org/2000/svg">
<g clip-path="url(#clip0_432_17444)">
<path d="M0.382812 182.533C0.382812 182.533 51.2227 227.354 119.009 186.448C119.009 186.448 150.565 167.748 196.146 173.592C241.726 179.436 231.208 185.279 260.426 181.773C266.725 181.013 273.048 179.997 279.067 177.963C283.871 176.338 288.896 174.714 293.945 173.685C296.855 173.089 299.812 172.774 302.769 172.622C306.836 172.4 310.716 173.019 313.802 169.805C316.619 166.872 318.418 163.085 319.459 159.181C321.784 150.509 321.235 141.346 321.177 132.452C321.083 118.217 320.3 103.993 320.429 89.7577C320.475 84.5101 321.562 77.2521 318.792 72.5655C316.49 68.6619 312.551 66.1023 309.115 63.2856C303.295 58.5171 297.662 53.5266 291.993 48.5828C281.942 39.8055 271.903 31.0399 261.852 22.2626C258.018 18.9083 253.928 15.8813 250.141 12.4452C248.587 10.8907 246.88 9.47654 245.256 8.00392C244.064 6.8118 242.755 5.72486 241.516 4.60287C240.183 3.39906 238.851 2.19525 237.519 0.99144C237.39 0.874565 237.227 0.746003 237.051 0.769378C236.934 0.781066 236.853 0.862878 236.759 0.933003C235.053 2.41731 233.346 3.87824 231.652 5.37424C229.957 6.87023 228.321 8.33117 226.661 9.80379C226.626 9.83885 226.591 9.86223 226.556 9.89729C223.225 12.8542 219.894 15.8111 216.552 18.7564C214.331 20.7199 212.122 22.6834 209.902 24.6469C199.967 33.4475 190.021 42.2482 180.087 51.0605C175.401 55.2213 170.492 59.4755 165.63 63.5661C161.715 66.862 155.427 70.5435 155.088 76.2704C154.843 80.3844 155.158 84.4984 155.123 88.6007C155.088 92.703 155.041 96.9923 154.983 101.188C154.983 109.439 154.807 117.691 154.726 125.942V126.947C154.632 135.795 154.55 144.654 154.469 153.501C154.398 161.308 154.317 169.116 154.246 176.923C154.246 181.972 154.13 187.009 154.013 192.046C153.954 194.431 154.059 196.862 154.854 199.117C155.649 201.373 157.203 203.442 159.401 204.377C161.154 205.125 163.129 205.101 165.034 205.066C176.628 204.833 188.186 204.646 199.769 204.634C201.685 204.634 203.614 204.634 205.53 204.634C211.783 204.634 218.048 204.646 224.3 204.669C230.857 204.692 237.413 204.716 243.982 204.751C250.445 204.786 256.92 204.821 263.383 204.856C269.367 204.891 275.351 204.926 281.334 204.973C286.442 205.008 291.549 205.043 296.657 205.078C300.49 205.101 304.335 205.136 308.169 205.171C314.573 205.171 321.071 205.382 327.441 204.821C333.811 204.26 340.18 202.25 346.071 199.585C353.913 196.032 361.147 191.287 368.499 186.799C374.214 183.304 380.046 179.95 386.252 177.402C392.481 174.842 398.991 173.627 405.571 172.353C410.713 171.36 415.914 170.658 421.138 170.238C440.212 168.707 459.66 170.88 477.787 177.086" stroke="#E5E5E4" stroke-miterlimit="10"/>
</g>
<defs>
<clipPath id="clip0_432_17444">
<rect width="478" height="205.629" fill="white" transform="translate(0 0.185059)"/>
</clipPath>
</defs>
</svg>
