<svg width="478" height="234" viewBox="0 0 478 234" fill="none" xmlns="http://www.w3.org/2000/svg">
<g clip-path="url(#clip0_433_17448)">
<path d="M0 233.341C30.3011 232.906 165.232 230.89 230.04 229.928C238.532 230.086 247.366 228.61 255.726 225.026C277.43 216.184 287.043 192.358 287.61 170.087C288.177 158.965 286.449 147.724 281.676 137.604C277.087 127.734 263.321 103.565 250.28 113.238C237.49 129.302 268.925 155.737 272.815 172.578C279.817 193.096 268.833 209.779 249.41 217.159C237.319 222.285 221.193 224.367 209.114 220.941C198.711 218.081 187.16 212.204 178.695 204.139C158.586 185.321 152.178 154.63 158.349 128.353C169.016 91.2835 194.742 59.6302 225.056 36.4898C228.3 33.1558 299.622 -17.0783 283.377 7.31396C275.189 19.0555 266.974 31.7985 264.218 46.0833C260.895 64.6378 271.075 81.8613 279.764 97.5694C289.983 113.501 298.106 129.882 298.382 149.332C298.818 164.816 296.84 180.511 291.974 194.915C288.401 205.299 288.374 219.834 298.356 226.555C303.327 230.034 309.419 230.508 315.3 230.877C353.987 233.117 433.867 232.814 478 232.511" stroke="#E5E5E4" stroke-miterlimit="10"/>
</g>
<defs>
<clipPath id="clip0_433_17448">
<rect width="478" height="234" fill="white"/>
</clipPath>
</defs>
</svg>
