<svg width="359" height="234" viewBox="0 0 359 234" fill="none" xmlns="http://www.w3.org/2000/svg">
<g clip-path="url(#clip0_434_19785)">
<path d="M-59.5 233.341C-29.1989 232.906 105.732 230.89 170.54 229.928C179.032 230.086 187.866 228.61 196.226 225.026C217.93 216.184 227.543 192.358 228.11 170.087C228.677 158.965 226.949 147.724 222.176 137.604C217.587 127.734 203.821 103.565 190.78 113.238C177.99 129.302 209.425 155.737 213.315 172.578C220.317 193.096 209.333 209.779 189.91 217.159C177.819 222.285 161.693 224.367 149.614 220.941C139.211 218.081 127.66 212.204 119.195 204.139C99.0861 185.321 92.6778 154.63 98.8488 128.353C109.516 91.2835 135.242 59.6302 165.556 36.4898C168.8 33.1558 240.122 -17.0783 223.877 7.31396C215.689 19.0555 207.474 31.7985 204.718 46.0833C201.395 64.6378 211.575 81.8613 220.264 97.5694C230.483 113.501 238.606 129.882 238.882 149.332C239.318 164.816 237.34 180.511 232.474 194.915C228.901 205.299 228.874 219.834 238.856 226.555C243.827 230.034 249.919 230.508 255.8 230.877C294.487 233.117 374.367 232.814 418.5 232.511" stroke="#E5E5E4" stroke-miterlimit="10"/>
</g>
<defs>
<clipPath id="clip0_434_19785">
<rect width="478" height="234" fill="white" transform="translate(-59.5)"/>
</clipPath>
</defs>
</svg>
