<svg width="273" height="414" viewBox="0 0 273 414" fill="none" xmlns="http://www.w3.org/2000/svg">
<g clip-path="url(#clip0_396_1177)">
<rect width="272" height="414" transform="translate(0.5)" fill="#3B3A37"/>
<g clip-path="url(#clip1_396_1177)">
<path d="M-32.7656 170.478C-32.7656 170.478 -1.08672 148.581 36.6432 157.123C45.2926 159.081 53.9064 161.174 62.5131 163.302C72.0168 165.659 81.5062 168.072 90.9885 170.514C99.7091 172.763 108.423 175.041 117.129 177.341C120.874 178.33 124.625 179.327 128.37 180.302C132.007 181.256 135.745 181.954 139.326 183.121C141.027 183.677 142.686 184.481 143.91 185.784C145.135 187.086 145.854 188.952 145.462 190.696C145.341 191.237 145.099 191.771 144.686 192.134C143.725 192.981 141.874 193.002 140.422 192.931C138.208 192.817 136.008 192.461 133.858 191.913C129.957 190.924 126.134 189.792 122.226 188.873C121.023 188.589 119.82 188.311 118.631 187.969C118.353 187.891 118.083 187.813 117.805 187.727C113.356 186.325 108.65 185.826 104.002 185.777C98.1857 185.72 92.391 186.367 86.6603 187.307C81.7198 188.119 76.8647 189.628 71.9171 190.261C71.2836 190.34 70.65 190.404 70.0164 190.439C66.4855 190.625 62.9901 189.642 60.0073 187.741C57.1313 185.912 54.0275 184.445 50.8311 183.278C48.4249 182.395 45.9547 181.669 43.4631 181.078C39.7542 180.195 35.974 179.59 32.1797 179.22C27.467 178.757 22.7258 178.651 17.9989 178.807C15.4931 178.893 12.9944 179.049 10.4957 179.277C10.4601 179.277 10.4529 179.327 10.4814 179.341C18.0132 182.837 25.5876 186.353 32.4075 191.094C37.1842 194.419 41.5908 198.341 46.7947 200.961C52.2477 203.702 58.3628 204.905 63.8301 207.61C69.9452 210.643 75.0138 215.434 80.8798 218.922C83.1222 220.253 85.5996 221.428 88.2976 220.865C89.5505 220.602 90.6896 219.883 91.3516 218.787C93.1385 215.818 90.654 212.544 88.1908 210.415C81.314 204.456 73.0775 200.271 65.9302 194.64C55.1949 186.182 46.3391 174.18 33.1407 170.727C33.1051 170.72 33.1051 170.663 33.1407 170.656C48.788 167.987 64.8196 169.724 80.2177 173.098C91.2092 175.504 101.944 179.049 112.722 182.26C115.577 183.114 118.396 184.089 121.208 185.079C124.034 186.076 126.86 187.079 129.722 187.976C132.563 188.866 135.446 189.656 138.379 190.205C139.625 190.439 140.877 190.596 142.13 190.738C142.757 190.81 143.39 190.852 144.017 190.945C146.288 191.287 145.056 191.144 145.576 191.287C147 191.287 157.208 194.454 174.763 194.846C192.567 195.245 210.073 194.668 222.673 190.489C226.396 189.251 233.109 184.04 223.919 180.452C223.001 180.096 222.032 179.882 221.05 179.811C216.508 179.498 200.79 177.839 198.967 169.937C198.69 168.72 198.619 167.481 198.796 166.25C198.974 165.004 200.007 163.886 201.01 163.21C202.021 162.526 203.224 162.142 204.435 162.035C204.826 162 205.218 161.993 205.609 162.014C207.688 162.128 209.653 162.946 211.61 163.651C214.543 164.705 217.562 165.509 220.63 166.065C223.755 166.627 226.902 167.026 230.084 167.125C230.49 167.139 230.895 167.147 231.294 167.154C232.383 167.168 233.465 167.154 234.555 167.097C249.504 166.385 255.199 169.944 255.199 169.944C255.199 169.944 270.861 177.775 279.403 184.182C283.304 187.108 287.91 189.357 291.05 193.187C293.926 196.697 295.442 201.196 295.898 205.667C296.254 209.141 295.983 212.793 294.303 215.854C292.673 218.808 289.875 220.944 286.942 222.61C280.058 226.518 272.64 227.785 264.895 228.653C256.53 229.593 248.13 230.291 239.723 230.739C229.251 231.302 218.729 231.565 208.257 230.846C205.061 230.625 201.808 230.277 198.789 229.159C195.771 228.041 193.009 225.713 190.297 223.777C187.3 221.634 184.345 219.435 181.491 217.114C179.704 215.662 177.938 214.167 176.337 212.501C175.475 211.604 174.222 210.408 174.03 209.105C173.88 208.08 174.258 207.361 174.258 207.361C175.311 205.247 179.177 205.154 181.27 205.474C184.701 206.001 188.268 206.4 191.635 207.247C194.967 208.087 197.878 210.016 200.861 211.639C205.018 213.903 209.453 215.733 214.045 216.907C215.17 217.192 216.309 217.441 217.455 217.648C211.682 219.235 204.57 219.093 198.946 216.936C196.696 216.074 194.561 214.814 192.468 213.626C189.449 211.91 186.467 210.116 183.505 208.301C181.405 207.012 179.319 205.702 177.226 204.392C175.753 203.467 174.329 202.456 172.82 201.588C169.709 199.794 165.971 199.445 162.647 198.583C161.287 198.235 159.913 197.929 158.518 197.772C156.809 197.587 154.88 197.544 153.293 198.349C152.246 198.875 151.207 200.007 151.243 201.267C151.278 202.584 151.712 203.652 152.531 204.67C153.506 205.873 154.524 206.87 155.955 207.518C157.315 208.13 158.774 208.472 160.205 208.899C165.025 210.337 169.41 212.814 173.425 215.818C176.265 217.94 179.006 220.211 181.968 222.168C182.06 222.225 182.003 222.368 181.896 222.346C174.115 220.744 166.598 218.075 158.988 215.768C155.094 214.587 151.171 213.505 147.228 212.515C144.864 211.924 142.365 211.305 140.764 209.354C139.874 208.265 139.439 206.827 139.852 205.474C140.5 203.332 142.743 202.748 144.601 202.976C146.131 203.161 147.569 203.802 149.043 204.243C153.044 205.453 157.343 205.225 161.451 204.485C163.836 204.058 166.185 203.46 168.534 202.869C170.649 202.342 172.77 201.908 174.898 201.474C183.406 199.758 222.808 202.342 235.964 201.979C246.486 201.687 261.4 198.861 279.389 187.03L329.94 159.971" stroke="#E5E5E4" stroke-miterlimit="10"/>
</g>
</g>
<defs>
<clipPath id="clip0_396_1177">
<rect width="272" height="414" fill="white" transform="translate(0.5)"/>
</clipPath>
<clipPath id="clip1_396_1177">
<rect width="293" height="293" fill="white" transform="translate(-11.5 37)"/>
</clipPath>
</defs>
</svg>
