<svg width="72" height="72" viewBox="0 0 72 72" fill="none" xmlns="http://www.w3.org/2000/svg">
<g clip-path="url(#clip0_649_7408)">
<path d="M28.1252 10.125C28.1252 8.56748 28.5871 7.04492 29.4524 5.74989C30.3177 4.45485 31.5476 3.44549 32.9866 2.84945C34.4256 2.25341 36.009 2.09746 37.5366 2.40132C39.0642 2.70518 40.4674 3.4552 41.5687 4.55654C42.67 5.65788 43.4201 7.06107 43.7239 8.58867C44.0278 10.1163 43.8718 11.6997 43.2758 13.1386C42.6797 14.5776 41.6704 15.8075 40.3754 16.6728C39.0803 17.5381 37.5578 18 36.0002 18C33.9117 18 31.9086 17.1703 30.4318 15.6935C28.9549 14.2166 28.1252 12.2136 28.1252 10.125ZM64.0127 26.0353C63.8077 25.0272 63.2572 24.1223 62.4562 23.4769C61.6551 22.8314 60.6539 22.4859 59.6252 22.5H12.3752C11.3493 22.5 10.3541 22.8505 9.5547 23.4935C8.75525 24.1365 8.19952 25.0333 7.9796 26.0354C7.75969 27.0375 7.88879 28.0847 8.34552 29.0033C8.80225 29.922 9.55918 30.657 10.4909 31.0866H10.5077L25.6643 37.7606L19.4993 61.1888C19.0288 62.2651 18.9978 63.4827 19.413 64.5816C19.8282 65.6804 20.6565 66.5734 21.7212 67.0697C22.3162 67.3522 22.9665 67.4992 23.6252 67.5C24.4735 67.5013 25.3049 67.2627 26.0235 66.8118C26.742 66.361 27.3185 65.7162 27.6865 64.9519L36.0002 50.625L44.3196 64.9688C44.8371 66.0214 45.745 66.8303 46.8501 67.2234C47.9553 67.6164 49.1701 67.5624 50.236 67.0729C51.3019 66.5834 52.1346 65.6971 52.5566 64.6028C52.9787 63.5084 52.9568 62.2925 52.4955 61.2141L46.3305 37.7859L61.518 31.1034C62.4605 30.6833 63.2261 29.9463 63.6818 29.0205C64.1376 28.0947 64.2546 27.0385 64.0127 26.0353Z" fill="#414BC1"/>
</g>
<defs>
<clipPath id="clip0_649_7408">
<rect width="72" height="72" fill="white"/>
</clipPath>
</defs>
</svg>
