<svg width="37" height="37" viewBox="0 0 37 37" fill="none" xmlns="http://www.w3.org/2000/svg">
<path d="M7.97046 34.1004C5.64824 32.0697 -2.59151 19.1089 10.6961 19.1088C14.56 9.62928 21.7045 9.62888 24.6651 19.1089C38.8514 17.7259 30.278 32.0148 28.3728 33.9201C26.4676 35.8254 21.2283 36.3016 17.8941 36.3016C14.56 36.3016 10.2927 36.131 7.97046 34.1004Z" stroke="#414BC1"/>
<path d="M9.23369 13.2319C9.23369 15.538 7.36428 17.4074 5.05825 17.4074C2.75222 17.4074 0.882812 15.538 0.882812 13.2319C0.882812 10.9259 2.69928 7.79102 5.00531 7.79102C7.9239 7.79102 9.23369 10.9259 9.23369 13.2319Z" fill="#414BC1"/>
<path d="M17.5853 5.80908C17.5853 8.11511 15.7158 9.98452 13.4098 9.98452C11.1038 9.98452 9.23438 8.11511 9.23438 5.80908C9.23438 3.50305 11.0508 0.368164 13.3569 0.368164C16.2755 0.368164 17.5853 3.50305 17.5853 5.80908Z" fill="#414BC1"/>
<path d="M27.7962 7.66455C27.7962 9.97058 25.9268 11.84 23.6208 11.84C21.3147 11.84 19.4453 9.97058 19.4453 7.66455C19.4453 5.35852 21.2618 2.22363 23.5678 2.22363C26.4864 2.22363 27.7962 5.35852 27.7962 7.66455Z" fill="#414BC1"/>
<path d="M36.1399 14.1597C36.1399 16.4657 34.2705 18.3351 31.9645 18.3351C29.6585 18.3351 27.7891 16.4657 27.7891 14.1597C27.7891 11.8536 29.6055 8.71875 31.9116 8.71875C34.8301 8.71875 36.1399 11.8536 36.1399 14.1597Z" fill="#414BC1"/>
</svg>
