<svg width="60" height="76" viewBox="0 0 60 76" fill="none" xmlns="http://www.w3.org/2000/svg">
<path d="M51.8043 43.1338C51.8043 56.0595 30.0296 66.5357 30.0296 66.5357C29.6228 66.5357 7.84375 55.8627 7.84375 42.6964V17.3261L25.9441 10.966C28.3368 10.1262 30.9132 10.1174 33.3059 10.9442L51.8043 17.3261V43.1338Z" fill="#414BC1"/>
<path d="M22.2969 36.8191L28.0052 42.2649L38.8969 32.668" stroke="white" stroke-width="3.93677" stroke-linecap="round" stroke-linejoin="round"/>
<path d="M58.25 44.2838C58.25 61.0413 30.0146 74.6275 30.0146 74.6275C29.4854 74.6275 1.25 60.7876 1.25 43.7195V10.8213L24.7219 2.57154C27.8232 1.48237 31.165 1.47362 34.2663 2.5453L58.25 10.8213V44.2838Z" stroke="#414BC1" stroke-width="1.78125" stroke-miterlimit="10"/>
</svg>
