<svg width="104" height="104" viewBox="0 0 104 104" fill="none" xmlns="http://www.w3.org/2000/svg">
<g clip-path="url(#clip0_649_5470)">
<rect width="104" height="104" fill="white"/>
<path d="M83.8603 43.4878C82.6233 42.195 81.3436 40.8628 80.8613 39.6914C80.415 38.6184 80.3887 36.84 80.3625 35.1173C80.3133 31.9148 80.2608 28.2858 77.7375 25.7625C75.2142 23.2392 71.5852 23.1867 68.3827 23.1375C66.66 23.1112 64.8816 23.085 63.8086 22.6387C62.6405 22.1564 61.305 20.8767 60.0122 19.6397C57.7481 17.4642 55.1756 15 51.75 15C48.3244 15 45.7552 17.4642 43.4878 19.6397C42.195 20.8767 40.8628 22.1564 39.6914 22.6387C38.625 23.085 36.84 23.1112 35.1173 23.1375C31.9148 23.1867 28.2858 23.2392 25.7625 25.7625C23.2392 28.2858 23.2031 31.9148 23.1375 35.1173C23.1112 36.84 23.085 38.6184 22.6387 39.6914C22.1564 40.8595 20.8767 42.195 19.6397 43.4878C17.4642 45.7519 15 48.3244 15 51.75C15 55.1756 17.4642 57.7448 19.6397 60.0122C20.8767 61.305 22.1564 62.6372 22.6387 63.8086C23.085 64.8816 23.1112 66.66 23.1375 68.3827C23.1867 71.5852 23.2392 75.2142 25.7625 77.7375C28.2858 80.2608 31.9148 80.3133 35.1173 80.3625C36.84 80.3887 38.6184 80.415 39.6914 80.8613C40.8595 81.3436 42.195 82.6233 43.4878 83.8603C45.7519 86.0358 48.3244 88.5 51.75 88.5C55.1756 88.5 57.7448 86.0358 60.0122 83.8603C61.305 82.6233 62.6372 81.3436 63.8086 80.8613C64.8816 80.415 66.66 80.3887 68.3827 80.3625C71.5852 80.3133 75.2142 80.2608 77.7375 77.7375C80.2608 75.2142 80.3133 71.5852 80.3625 68.3827C80.3887 66.66 80.415 64.8816 80.8613 63.8086C81.3436 62.6405 82.6233 61.305 83.8603 60.0122C86.0358 57.7481 88.5 55.1756 88.5 51.75C88.5 48.3244 86.0358 45.7552 83.8603 43.4878ZM66.7322 45.7322L48.3572 64.1072C48.1134 64.3513 47.8239 64.5449 47.5052 64.677C47.1866 64.8091 46.845 64.8771 46.5 64.8771C46.155 64.8771 45.8135 64.8091 45.4948 64.677C45.1761 64.5449 44.8866 64.3513 44.6428 64.1072L36.7678 56.2322C36.2753 55.7396 35.9985 55.0716 35.9985 54.375C35.9985 53.6784 36.2753 53.0104 36.7678 52.5178C37.2604 52.0253 37.9284 51.7485 38.625 51.7485C39.3216 51.7485 39.9896 52.0253 40.4822 52.5178L46.5 58.5389L63.0178 42.0178C63.2617 41.7739 63.5512 41.5805 63.8699 41.4485C64.1886 41.3165 64.5301 41.2485 64.875 41.2485C65.2199 41.2485 65.5614 41.3165 65.8801 41.4485C66.1988 41.5805 66.4883 41.7739 66.7322 42.0178C66.9761 42.2617 67.1695 42.5512 67.3015 42.8699C67.4335 43.1886 67.5015 43.5301 67.5015 43.875C67.5015 44.2199 67.4335 44.5614 67.3015 44.8801C67.1695 45.1988 66.9761 45.4883 66.7322 45.7322Z" fill="#414BC1"/>
</g>
<defs>
<clipPath id="clip0_649_5470">
<rect width="104" height="104" rx="8" fill="white"/>
</clipPath>
</defs>
</svg>
