<svg width="36" height="41" viewBox="0 0 36 41" fill="none" xmlns="http://www.w3.org/2000/svg">
<path d="M13.1492 5.08053C13.1492 4.12205 13.4334 3.1851 13.9659 2.38815C14.4984 1.59121 15.2553 0.970063 16.1408 0.603269C17.0263 0.236475 18.0007 0.140505 18.9408 0.327495C19.8808 0.514485 20.7443 0.976036 21.4221 1.65378C22.0998 2.33153 22.5614 3.19503 22.7484 4.13509C22.9354 5.07516 22.8394 6.04956 22.4726 6.93507C22.1058 7.82059 21.4847 8.57746 20.6877 9.10996C19.8908 9.64246 18.9538 9.92669 17.9953 9.92669C16.7101 9.92669 15.4774 9.41611 14.5686 8.50728C13.6598 7.59845 13.1492 6.36581 13.1492 5.08053ZM35.2338 14.8715C35.1077 14.2511 34.7689 13.6943 34.2759 13.2971C33.783 12.8999 33.1668 12.6873 32.5338 12.6959H3.45688C2.82553 12.6959 2.21312 12.9116 1.72116 13.3073C1.22919 13.703 0.887204 14.2549 0.751872 14.8715C0.616539 15.4882 0.695989 16.1326 0.977052 16.698C1.25812 17.2633 1.72392 17.7156 2.29726 17.98H2.30764L11.6348 22.0871L7.84091 36.5044C7.55139 37.1667 7.53233 37.916 7.78781 38.5923C8.04329 39.2685 8.55305 39.818 9.20822 40.1234C9.5744 40.2973 9.9746 40.3877 10.38 40.3882C10.902 40.389 11.4136 40.2422 11.8558 39.9647C12.298 39.6873 12.6528 39.2905 12.8792 38.8202L17.9953 30.0036L23.115 38.8305C23.4334 39.4783 23.9921 39.9761 24.6722 40.218C25.3523 40.4599 26.0999 40.4266 26.7558 40.1254C27.4118 39.8242 27.9242 39.2788 28.1839 38.6053C28.4436 37.9319 28.4301 37.1836 28.1463 36.52L24.3525 22.1026L33.6986 17.9903C34.2786 17.7318 34.7497 17.2783 35.0302 16.7085C35.3106 16.1388 35.3827 15.4888 35.2338 14.8715Z" fill="#414BC1"/>
</svg>
