<svg width="74" height="74" viewBox="0 0 74 74" fill="none" xmlns="http://www.w3.org/2000/svg">
<path d="M68.8603 28.4878C67.6233 27.195 66.3436 25.8628 65.8613 24.6914C65.415 23.6184 65.3887 21.84 65.3625 20.1173C65.3133 16.9148 65.2608 13.2858 62.7375 10.7625C60.2142 8.23922 56.5852 8.18672 53.3827 8.1375C51.66 8.11125 49.8816 8.085 48.8086 7.63875C47.6405 7.15641 46.305 5.87672 45.0122 4.63969C42.7481 2.46422 40.1756 0 36.75 0C33.3244 0 30.7552 2.46422 28.4878 4.63969C27.195 5.87672 25.8628 7.15641 24.6914 7.63875C23.625 8.085 21.84 8.11125 20.1173 8.1375C16.9148 8.18672 13.2858 8.23922 10.7625 10.7625C8.23922 13.2858 8.20312 16.9148 8.1375 20.1173C8.11125 21.84 8.085 23.6184 7.63875 24.6914C7.15641 25.8595 5.87672 27.195 4.63969 28.4878C2.46422 30.7519 0 33.3244 0 36.75C0 40.1756 2.46422 42.7448 4.63969 45.0122C5.87672 46.305 7.15641 47.6372 7.63875 48.8086C8.085 49.8816 8.11125 51.66 8.1375 53.3827C8.18672 56.5852 8.23922 60.2142 10.7625 62.7375C13.2858 65.2608 16.9148 65.3133 20.1173 65.3625C21.84 65.3887 23.6184 65.415 24.6914 65.8613C25.8595 66.3436 27.195 67.6233 28.4878 68.8603C30.7519 71.0358 33.3244 73.5 36.75 73.5C40.1756 73.5 42.7448 71.0358 45.0122 68.8603C46.305 67.6233 47.6372 66.3436 48.8086 65.8613C49.8816 65.415 51.66 65.3887 53.3827 65.3625C56.5852 65.3133 60.2142 65.2608 62.7375 62.7375C65.2608 60.2142 65.3133 56.5852 65.3625 53.3827C65.3887 51.66 65.415 49.8816 65.8613 48.8086C66.3436 47.6405 67.6233 46.305 68.8603 45.0122C71.0358 42.7481 73.5 40.1756 73.5 36.75C73.5 33.3244 71.0358 30.7552 68.8603 28.4878ZM51.7322 30.7322L33.3572 49.1072C33.1134 49.3513 32.8239 49.5449 32.5052 49.677C32.1866 49.8091 31.845 49.8771 31.5 49.8771C31.155 49.8771 30.8135 49.8091 30.4948 49.677C30.1761 49.5449 29.8866 49.3513 29.6428 49.1072L21.7678 41.2322C21.2753 40.7396 20.9985 40.0716 20.9985 39.375C20.9985 38.6784 21.2753 38.0104 21.7678 37.5178C22.2604 37.0253 22.9284 36.7485 23.625 36.7485C24.3216 36.7485 24.9896 37.0253 25.4822 37.5178L31.5 43.5389L48.0178 27.0178C48.2617 26.7739 48.5512 26.5805 48.8699 26.4485C49.1886 26.3165 49.5301 26.2485 49.875 26.2485C50.2199 26.2485 50.5614 26.3165 50.8801 26.4485C51.1988 26.5805 51.4883 26.7739 51.7322 27.0178C51.9761 27.2617 52.1695 27.5512 52.3015 27.8699C52.4335 28.1886 52.5015 28.5301 52.5015 28.875C52.5015 29.2199 52.4335 29.5614 52.3015 29.8801C52.1695 30.1988 51.9761 30.4883 51.7322 30.7322Z" fill="#414BC1"/>
</svg>
