<svg width="46" height="46" viewBox="0 0 46 46" fill="none" xmlns="http://www.w3.org/2000/svg">
<path d="M42.61 17.7653C41.8487 16.9698 41.0612 16.15 40.7644 15.4291C40.4898 14.7688 40.4736 13.6744 40.4574 12.6143C40.4272 10.6435 40.3949 8.41024 38.8421 6.85745C37.2893 5.30466 35.056 5.27236 33.0852 5.24207C32.0251 5.22591 30.9307 5.20976 30.2704 4.93514C29.5516 4.63832 28.7298 3.85082 27.9342 3.08957C26.5409 1.75082 24.9578 0.234375 22.8498 0.234375C20.7417 0.234375 19.1606 1.75082 17.7653 3.08957C16.9698 3.85082 16.15 4.63832 15.4291 4.93514C14.7728 5.20976 13.6744 5.22591 12.6143 5.24207C10.6435 5.27236 8.41024 5.30466 6.85745 6.85745C5.30466 8.41024 5.28245 10.6435 5.24207 12.6143C5.22591 13.6744 5.20976 14.7688 4.93514 15.4291C4.63832 16.1479 3.85082 16.9698 3.08957 17.7653C1.75082 19.1586 0.234375 20.7417 0.234375 22.8498C0.234375 24.9578 1.75082 26.5389 3.08957 27.9342C3.85082 28.7298 4.63832 29.5496 4.93514 30.2704C5.20976 30.9307 5.22591 32.0251 5.24207 33.0852C5.27236 35.056 5.30466 37.2893 6.85745 38.8421C8.41024 40.3949 10.6435 40.4272 12.6143 40.4574C13.6744 40.4736 14.7688 40.4898 15.4291 40.7644C16.1479 41.0612 16.9698 41.8487 17.7653 42.61C19.1586 43.9487 20.7417 45.4651 22.8498 45.4651C24.9578 45.4651 26.5389 43.9487 27.9342 42.61C28.7298 41.8487 29.5496 41.0612 30.2704 40.7644C30.9307 40.4898 32.0251 40.4736 33.0852 40.4574C35.056 40.4272 37.2893 40.3949 38.8421 38.8421C40.3949 37.2893 40.4272 35.056 40.4574 33.0852C40.4736 32.0251 40.4898 30.9307 40.7644 30.2704C41.0612 29.5516 41.8487 28.7298 42.61 27.9342C43.9487 26.5409 45.4651 24.9578 45.4651 22.8498C45.4651 20.7417 43.9487 19.1606 42.61 17.7653ZM32.0696 19.1465L20.7619 30.4542C20.6118 30.6044 20.4337 30.7235 20.2376 30.8048C20.0415 30.8861 19.8313 30.928 19.619 30.928C19.4067 30.928 19.1965 30.8861 19.0004 30.8048C18.8043 30.7235 18.6261 30.6044 18.4761 30.4542L13.63 25.608C13.3268 25.3049 13.1566 24.8938 13.1566 24.4651C13.1566 24.0365 13.3268 23.6254 13.63 23.3223C13.9331 23.0191 14.3442 22.8489 14.7728 22.8489C15.2015 22.8489 15.6126 23.0191 15.9157 23.3223L19.619 27.0275L29.7838 16.8607C29.9339 16.7106 30.1121 16.5916 30.3082 16.5104C30.5043 16.4291 30.7144 16.3873 30.9267 16.3873C31.1389 16.3873 31.3491 16.4291 31.5452 16.5104C31.7413 16.5916 31.9195 16.7106 32.0696 16.8607C32.2197 17.0108 32.3387 17.189 32.4199 17.3851C32.5012 17.5812 32.543 17.7914 32.543 18.0036C32.543 18.2159 32.5012 18.426 32.4199 18.6221C32.3387 18.8182 32.2197 18.9964 32.0696 19.1465Z" fill="#414BC1"/>
</svg>
