<svg width="70" height="69" viewBox="0 0 70 69" fill="none" xmlns="http://www.w3.org/2000/svg">
<path d="M51.1324 68.3703H64.8148C66.19 68.3703 67.5089 67.824 68.4813 66.8516C69.4537 65.8792 70 64.5603 70 63.1851V50.9837C69.9978 50.5585 69.891 50.1404 69.6891 49.7662C69.4873 49.392 69.1965 49.0732 68.8424 48.8379C68.4883 48.6026 68.0817 48.458 67.6585 48.4168C67.2354 48.3756 66.8086 48.4391 66.4157 48.6018C65.497 48.9812 64.5125 49.1762 63.5185 49.1754C59.231 49.1754 55.7407 45.5781 55.7407 41.161C55.7407 36.7439 59.231 33.1467 63.5185 33.1467C64.5125 33.1459 65.497 33.3408 66.4157 33.7203C66.8106 33.8838 67.2397 33.9471 67.665 33.9046C68.0902 33.8622 68.4984 33.7152 68.8531 33.4769C69.2079 33.2386 69.4982 32.9163 69.6983 32.5387C69.8984 32.161 70.002 31.7398 70 31.3124V19.111C70 17.7358 69.4537 16.417 68.4813 15.4446C67.5089 14.4721 66.19 13.9258 64.8148 13.9258H53.0768C53.1251 13.4954 53.1489 13.0627 53.1481 12.6296C53.1481 9.53536 51.919 6.5679 49.731 4.37998C47.5431 2.19205 44.5757 0.962891 41.4815 0.962891C38.3873 0.962891 35.4198 2.19205 33.2319 4.37998C31.044 6.5679 29.8148 9.53536 29.8148 12.6296C29.8141 13.0627 29.8379 13.4954 29.8861 13.9258H18.1481C16.7729 13.9258 15.4541 14.4721 14.4817 15.4446C13.5093 16.417 12.963 17.7358 12.963 19.111V29.5527C12.5326 29.5045 12.0998 29.4806 11.6667 29.4814C8.57247 29.4814 5.60501 30.7106 3.41709 32.8985C1.22916 35.0864 0 38.0539 0 41.1481C0 44.2422 1.22916 47.2097 3.41709 49.3976C5.60501 51.5856 8.57247 52.8147 11.6667 52.8147C12.0998 52.8155 12.5326 52.7917 12.963 52.7434V63.1851C12.963 64.5603 13.5093 65.8792 14.4817 66.8516C15.4541 67.824 16.7729 68.3703 18.1481 68.3703H31.8305" fill="#414BC1"/>
</svg>
