<svg width="44" height="42" viewBox="0 0 44 42" fill="none" xmlns="http://www.w3.org/2000/svg">
<path d="M31.4661 41.9229H39.886C40.7323 41.9229 41.5439 41.5867 42.1423 40.9883C42.7407 40.3899 43.0769 39.5783 43.0769 38.732V31.2234C43.0755 30.9618 43.0099 30.7045 42.8856 30.4742C42.7614 30.244 42.5824 30.0478 42.3645 29.903C42.1466 29.7581 41.8964 29.6691 41.636 29.6438C41.3756 29.6185 41.1129 29.6575 40.8712 29.7576C40.3058 29.9912 39.7 30.1111 39.0883 30.1106C36.4498 30.1106 34.302 27.8969 34.302 25.1787C34.302 22.4605 36.4498 20.2468 39.0883 20.2468C39.7 20.2463 40.3058 20.3663 40.8712 20.5998C41.1142 20.7004 41.3783 20.7394 41.64 20.7132C41.9017 20.6871 42.1529 20.5967 42.3712 20.45C42.5895 20.3034 42.7681 20.105 42.8913 19.8726C43.0144 19.6403 43.0782 19.381 43.0769 19.118V11.6095C43.0769 10.7632 42.7407 9.9516 42.1423 9.3532C41.5439 8.75479 40.7323 8.41861 39.886 8.41861H32.6627C32.6923 8.15375 32.707 7.88741 32.7065 7.62089C32.7065 5.71677 31.9501 3.89064 30.6037 2.54423C29.2573 1.19781 27.4312 0.441406 25.5271 0.441406C23.6229 0.441406 21.7968 1.19781 20.4504 2.54423C19.104 3.89064 18.3476 5.71677 18.3476 7.62089C18.3471 7.88741 18.3618 8.15375 18.3914 8.41861H11.1681C10.3218 8.41861 9.5102 8.75479 8.91179 9.3532C8.31339 9.9516 7.9772 10.7632 7.9772 11.6095V18.0351C7.71234 18.0054 7.44601 17.9908 7.17948 17.9913C5.27537 17.9913 3.44924 18.7477 2.10282 20.0941C0.756408 21.4405 0 23.2666 0 25.1707C0 27.0749 0.756408 28.901 2.10282 30.2474C3.44924 31.5938 5.27537 32.3502 7.17948 32.3502C7.44601 32.3507 7.71234 32.336 7.9772 32.3063V38.732C7.9772 39.5783 8.31339 40.3899 8.91179 40.9883C9.5102 41.5867 10.3218 41.9229 11.1681 41.9229H19.588" fill="#414BC1"/>
</svg>
