<svg width="108" height="52" viewBox="0 0 108 52" fill="none" xmlns="http://www.w3.org/2000/svg">
<path d="M28.229 38.9001C28.093 38.8487 27.9188 38.7949 27.7012 38.7411C27.4836 38.6873 27.2605 38.6604 27.0347 38.6604C26.662 38.6604 26.3655 38.746 26.1397 38.9172C25.9139 39.0884 25.8024 39.3012 25.8024 39.5532C25.8024 39.744 25.865 39.9005 25.9874 40.0253C26.1098 40.15 26.2703 40.2527 26.4662 40.3383C26.662 40.424 26.8742 40.5047 27.1 40.583C27.2741 40.6392 27.4455 40.7028 27.6142 40.7713C27.7828 40.8398 27.9379 40.9254 28.0766 41.0232C28.2154 41.1211 28.3269 41.2434 28.4085 41.3877C28.4901 41.5345 28.5309 41.7106 28.5309 41.9185C28.5309 42.1827 28.4629 42.4126 28.3269 42.6034C28.1909 42.7942 28.0086 42.9409 27.7774 43.0461C27.5462 43.1513 27.285 43.2027 26.9939 43.2027C26.7028 43.2027 26.4743 43.1709 26.2621 43.1073C26.0499 43.0437 25.8731 42.9752 25.7344 42.9018C25.5929 42.8284 25.4923 42.7746 25.4297 42.7379L25.5031 42.6205C25.6038 42.6866 25.7317 42.755 25.8867 42.826C26.0418 42.8969 26.2104 42.9581 26.3982 43.0094C26.5831 43.0584 26.7736 43.0853 26.9667 43.0853C27.2034 43.0853 27.4292 43.0437 27.6468 42.9581C27.8644 42.8725 28.0413 42.7453 28.18 42.574C28.3188 42.4028 28.3868 42.1876 28.3868 41.9258C28.3868 41.6641 28.3187 41.4635 28.1827 41.3094C28.0467 41.1553 27.8753 41.0306 27.6659 40.9376C27.4564 40.8447 27.236 40.7591 27.0021 40.6808C26.8334 40.6294 26.6675 40.5707 26.5097 40.5071C26.3519 40.4435 26.2077 40.3701 26.0799 40.2894C25.952 40.2087 25.8486 40.106 25.7725 39.9886C25.6963 39.8712 25.6555 39.7317 25.6555 39.5727C25.6555 39.3697 25.7153 39.1912 25.835 39.0395C25.9547 38.8878 26.1179 38.768 26.3247 38.6824C26.5314 38.5943 26.76 38.5527 27.0157 38.5527C27.1979 38.5527 27.4129 38.5772 27.6577 38.6237C27.9025 38.6726 28.1093 38.7313 28.2834 38.8071L28.2263 38.905L28.229 38.9001Z" fill="#010FAD"/>
<path d="M26.9973 43.4115C26.6981 43.4115 26.426 43.3748 26.1894 43.3063C25.9609 43.2402 25.7677 43.1644 25.6154 43.0812C25.4739 43.0054 25.3705 42.9516 25.3052 42.9149L25.1094 42.8048L25.4249 42.2936L25.6453 42.4355C25.7351 42.4942 25.8548 42.5578 25.9989 42.6238C26.1404 42.6899 26.2982 42.7461 26.4696 42.7902C26.8259 42.8856 27.2122 42.8807 27.555 42.7461C27.7318 42.6776 27.8733 42.5749 27.9876 42.433C28.0964 42.2985 28.1481 42.1273 28.1481 41.912C28.1481 41.6968 28.0964 41.5451 27.9984 41.4302C27.8842 41.3005 27.7427 41.1978 27.5632 41.1195C27.3619 41.029 27.147 40.9458 26.9239 40.87C26.7579 40.8186 26.5866 40.7599 26.4179 40.6939C26.2438 40.6254 26.086 40.5447 25.9418 40.4542C25.7868 40.3539 25.6616 40.2316 25.5664 40.0873C25.4685 39.9356 25.4168 39.7595 25.4168 39.5589C25.4168 39.3094 25.493 39.0868 25.6426 38.8985C25.7868 38.7175 25.9826 38.5732 26.2247 38.4704C26.6246 38.3017 27.0762 38.2723 27.7128 38.3971C27.974 38.4484 28.2025 38.5145 28.3902 38.5952L28.6187 38.693L28.3358 39.1676L28.1317 39.0893C28.0093 39.0428 27.8407 38.9914 27.6339 38.9401C27.438 38.8912 27.2367 38.8667 27.0327 38.8667C26.7171 38.8667 26.475 38.9352 26.2955 39.0722C26.1241 39.2042 26.0425 39.3535 26.0425 39.5418C26.0425 39.6788 26.0833 39.7864 26.1649 39.8696C26.2655 39.9723 26.4016 40.0604 26.5675 40.1313C26.7579 40.2145 26.9647 40.2927 27.1823 40.3686C27.3537 40.4248 27.5332 40.4909 27.7101 40.5618C27.8951 40.6376 28.0664 40.7306 28.2215 40.8382C28.3902 40.9556 28.5235 41.1024 28.6214 41.2761C28.7193 41.4522 28.771 41.6625 28.771 41.9047C28.771 42.2104 28.6894 42.4795 28.5316 42.7045C28.3738 42.9296 28.1562 43.1033 27.8842 43.2256C27.6203 43.3454 27.3211 43.4041 26.9946 43.4041L26.9973 43.4115Z" fill="#010FAD"/>
<path d="M33.4219 38.5625H36.4578V38.6873H33.5661V40.7664H36.1749V40.8911H33.5661V43.0143H36.5585V43.1391H33.4219V38.5649V38.5625Z" fill="#010FAD"/>
<path d="M36.8083 43.345H33.1875V38.3379H36.7077V38.8956H33.8159V40.5393H36.4248V41.097H33.8159V42.7873H36.8083V43.345Z" fill="#010FAD"/>
<path d="M42.6099 38.5859C42.754 38.5859 42.9118 38.6079 43.0832 38.652C43.2546 38.696 43.4178 38.7645 43.5674 38.8599C43.7198 38.9553 43.8449 39.08 43.9401 39.2341C44.0353 39.3882 44.0843 39.579 44.0843 39.8041C44.0843 39.968 44.0544 40.1294 43.9973 40.2835C43.9401 40.4376 43.8476 40.5746 43.7252 40.6969C43.6028 40.8192 43.4423 40.9146 43.2437 40.988C43.0451 41.0589 42.803 41.0956 42.5119 41.0956H41.7067V43.16H41.5625V38.5859H42.6071H42.6099ZM42.4929 40.9684C42.784 40.9684 43.0206 40.9341 43.2056 40.8632C43.3906 40.7947 43.5375 40.7018 43.6436 40.5893C43.7497 40.4767 43.8259 40.352 43.8721 40.215C43.9184 40.078 43.9401 39.9435 43.9401 39.809C43.9401 39.6475 43.9048 39.4983 43.834 39.3638C43.7633 39.2292 43.6681 39.1094 43.5484 39.0115C43.4287 38.9137 43.2872 38.8379 43.1294 38.7865C42.9689 38.7351 42.7976 38.7082 42.6153 38.7082H41.7094V40.9684H42.4929ZM43.1594 40.9757L44.6148 43.1576H44.4488L42.9934 40.9757H43.1594Z" fill="#010FAD"/>
<path d="M45.0496 43.3708H44.3178L42.9223 41.2819C42.7971 41.299 42.6638 41.3064 42.5197 41.3064H41.9565V43.3708H41.3281V38.3613H42.6122C42.7781 38.3613 42.9604 38.3858 43.1535 38.4347C43.3494 38.4836 43.5371 38.5643 43.7112 38.6744C43.8935 38.7869 44.0431 38.9386 44.1573 39.1196C44.2743 39.3055 44.3342 39.5354 44.3342 39.7972C44.3342 39.9855 44.3015 40.169 44.2335 40.3451C44.1655 40.5285 44.0567 40.6924 43.9125 40.8367C43.8091 40.9395 43.6813 41.0275 43.5344 41.1009L45.0496 43.3708ZM41.9593 40.7462H42.5006C42.7563 40.7462 42.9658 40.7169 43.1209 40.6582C43.2705 40.6019 43.3875 40.531 43.4691 40.4454C43.5534 40.3549 43.6133 40.257 43.6513 40.1494C43.6894 40.0344 43.7112 39.9195 43.7112 39.8045C43.7112 39.6749 43.684 39.5574 43.6269 39.4498C43.5697 39.3397 43.4963 39.2468 43.3983 39.1685C43.3004 39.0878 43.1889 39.0291 43.0583 38.9851C42.925 38.941 42.7808 38.919 42.6258 38.919H41.962V40.7438L41.9593 40.7462Z" fill="#010FAD"/>
<path d="M49.4699 38.3379H49.3203L51.2681 42.4888L51.2736 42.479L49.4672 38.3379H49.4699ZM51.2763 42.479V42.4888L51.3797 42.254L51.2763 42.4766V42.479ZM53.0717 38.3379L51.3769 42.254L53.2132 38.3379H53.069H53.0717Z" fill="#010FAD"/>
<path d="M53.4811 38.3379L51.264 43.3474L49.0469 38.3379H49.7243L51.2694 41.8896L52.8065 38.3379H53.4811Z" fill="#010FAD"/>
<path d="M58.2188 38.5625H58.3628V43.1366H58.2188V38.5625Z" fill="#010FAD"/>
<path d="M58.6126 38.3379H57.9844V43.3474H58.6126V38.3379Z" fill="#010FAD"/>
<path d="M67.2591 42.8603C67.134 42.9263 67.0007 42.9826 66.8565 43.034C66.715 43.0829 66.5627 43.122 66.4049 43.1514C66.2444 43.1807 66.0784 43.193 65.9043 43.193C65.518 43.193 65.1671 43.1318 64.8488 43.0095C64.5333 42.8872 64.2612 42.7209 64.0327 42.5081C63.8042 42.2953 63.6328 42.0482 63.5104 41.7694C63.3907 41.4881 63.3281 41.1921 63.3281 40.879C63.3281 40.5488 63.3934 40.2406 63.5267 39.9544C63.66 39.6682 63.845 39.4163 64.0817 39.201C64.3183 38.9858 64.5931 38.817 64.9087 38.6971C65.2215 38.5748 65.5589 38.5137 65.9152 38.5137C66.1628 38.5137 66.3967 38.543 66.6225 38.6017C66.8483 38.6604 67.0578 38.7412 67.2564 38.8463L67.1829 38.9564C66.9979 38.8561 66.7994 38.7778 66.5844 38.7216C66.3695 38.6653 66.1465 38.636 65.9152 38.636C65.5806 38.636 65.2678 38.6947 64.9685 38.8096C64.672 38.9246 64.4108 39.086 64.1905 39.2915C63.9674 39.497 63.7933 39.7367 63.6655 40.0082C63.5376 40.2797 63.4723 40.5708 63.4723 40.8839C63.4723 41.175 63.5294 41.4538 63.6437 41.718C63.7579 41.9822 63.9212 42.217 64.1334 42.4176C64.3456 42.6206 64.6013 42.7771 64.8978 42.8921C65.1943 43.0071 65.5289 43.0658 65.9016 43.0658C66.1383 43.0658 66.3641 43.0364 66.5763 42.9777C66.7885 42.919 66.9871 42.8407 67.1693 42.7453L67.2564 42.8554L67.2591 42.8603Z" fill="#010FAD"/>
<path d="M65.9121 43.4042C65.4931 43.4042 65.1068 43.3357 64.7614 43.2036C64.4159 43.0715 64.1166 42.8856 63.8664 42.6533C63.6161 42.4209 63.4256 42.1469 63.2923 41.8412C63.1618 41.5379 63.0938 41.2125 63.0938 40.8725C63.0938 40.5154 63.1672 40.1754 63.3114 39.8648C63.4556 39.5541 63.6596 39.2777 63.918 39.0429C64.1765 38.8081 64.4784 38.6222 64.8212 38.4901C65.4006 38.265 66.0971 38.2308 66.6983 38.3874C66.9404 38.451 67.1743 38.539 67.3865 38.654L67.596 38.764L67.2777 39.2533L67.0683 39.1383C66.9023 39.0478 66.7228 38.9769 66.5269 38.9255C66.059 38.8032 65.5258 38.8301 65.0742 39.0038C64.8076 39.1065 64.5709 39.2533 64.3723 39.4367C64.171 39.6226 64.0105 39.8428 63.8963 40.0874C63.782 40.332 63.7222 40.5961 63.7222 40.8799C63.7222 41.1441 63.7739 41.396 63.8772 41.6357C63.9779 41.873 64.1275 42.0858 64.3152 42.2643C64.5029 42.4429 64.7341 42.5872 64.998 42.69C65.2619 42.7927 65.5693 42.8441 65.9066 42.8441C66.1188 42.8441 66.3201 42.8171 66.5106 42.7658C66.7037 42.712 66.8887 42.641 67.0546 42.5554L67.2478 42.4551L67.6151 42.9248L67.3865 43.0446C67.2505 43.1156 67.1036 43.1767 66.9513 43.2305C66.7962 43.2843 66.6303 43.3284 66.4562 43.3577C66.2821 43.3895 66.0971 43.4042 65.9094 43.4042H65.9121Z" fill="#010FAD"/>
<path d="M72.2344 38.5625H75.2703V38.6873H72.3786V40.7664H74.9874V40.8911H72.3786V43.0143H75.371V43.1391H72.2344V38.5649V38.5625Z" fill="#010FAD"/>
<path d="M75.6208 43.345H72V38.3379H75.5202V38.8956H72.6284V40.5393H75.2373V41.097H72.6284V42.7873H75.6208V43.345Z" fill="#010FAD"/>
<path d="M82.7759 38.9001C82.6398 38.8487 82.4657 38.7949 82.2481 38.7411C82.0305 38.6873 81.8074 38.6604 81.5816 38.6604C81.2089 38.6604 80.9124 38.746 80.6866 38.9172C80.4608 39.0884 80.3493 39.3012 80.3493 39.5532C80.3493 39.744 80.4118 39.9005 80.5342 40.0253C80.6567 40.15 80.8172 40.2527 81.013 40.3383C81.2089 40.424 81.4211 40.5047 81.6469 40.583C81.821 40.6392 81.9924 40.7028 82.161 40.7713C82.3297 40.8398 82.4848 40.9254 82.6235 41.0232C82.7622 41.1211 82.8738 41.2434 82.9554 41.3877C83.037 41.5345 83.0778 41.7106 83.0778 41.9185C83.0778 42.1827 83.0098 42.4126 82.8738 42.6034C82.7378 42.7942 82.5555 42.9409 82.3243 43.0461C82.093 43.1513 81.8319 43.2027 81.5408 43.2027C81.2497 43.2027 81.0212 43.1709 80.809 43.1073C80.5968 43.0437 80.42 42.9752 80.2812 42.9018C80.1398 42.8284 80.0391 42.7746 79.9766 42.7379L80.05 42.6205C80.1507 42.6866 80.2785 42.755 80.4336 42.826C80.5886 42.8969 80.7573 42.9581 80.945 43.0094C81.13 43.0584 81.3204 43.0853 81.5136 43.0853C81.7503 43.0853 81.9761 43.0437 82.1937 42.9581C82.4113 42.8725 82.5881 42.7453 82.7269 42.574C82.8656 42.4028 82.9336 42.1876 82.9336 41.9258C82.9336 41.6641 82.8656 41.4635 82.7296 41.3094C82.5936 41.1553 82.4222 41.0306 82.2127 40.9376C82.0033 40.8447 81.7829 40.7591 81.549 40.6808C81.3803 40.6294 81.2143 40.5707 81.0566 40.5071C80.8988 40.4435 80.7546 40.3701 80.6267 40.2894C80.4989 40.2087 80.3955 40.106 80.3193 39.9886C80.2432 39.8712 80.2024 39.7317 80.2024 39.5727C80.2024 39.3697 80.2622 39.1912 80.3819 39.0395C80.5016 38.8878 80.6648 38.768 80.8716 38.6824C81.0783 38.5943 81.3068 38.5527 81.5626 38.5527C81.7448 38.5527 81.9597 38.5772 82.2046 38.6237C82.4494 38.6726 82.6562 38.7313 82.8303 38.8071L82.7731 38.905L82.7759 38.9001Z" fill="#010FAD"/>
<path d="M81.5442 43.4115C81.245 43.4115 80.9729 43.3748 80.7362 43.3063C80.5077 43.2402 80.3146 43.1644 80.1622 43.0812C80.0208 43.0054 79.9174 42.9516 79.8521 42.9149L79.6562 42.8048L79.9718 42.2936L80.1922 42.4355C80.2847 42.4942 80.4016 42.5578 80.5458 42.6238C80.6873 42.6899 80.8451 42.7461 81.0137 42.7902C81.3701 42.8856 81.7564 42.8807 82.0992 42.7461C82.276 42.6776 82.4174 42.5749 82.5317 42.433C82.6405 42.2985 82.6922 42.1273 82.6922 41.912C82.6922 41.6968 82.6405 41.5451 82.5426 41.4302C82.4283 41.3005 82.2869 41.1978 82.1073 41.1195C81.906 41.029 81.6911 40.9458 81.468 40.87C81.3021 40.8186 81.128 40.7575 80.962 40.6939C80.7879 40.6254 80.6274 40.5447 80.4887 40.4542C80.3336 40.3539 80.2085 40.2316 80.1133 40.0873C80.0153 39.9356 79.9636 39.7595 79.9636 39.5589C79.9636 39.3094 80.0398 39.0868 80.1894 38.8985C80.3336 38.7175 80.5295 38.5732 80.7716 38.4704C81.1715 38.3017 81.6231 38.2723 82.2597 38.3971C82.5208 38.4484 82.7493 38.5145 82.937 38.5952L83.1656 38.693L82.8826 39.17L82.6786 39.0917C82.5562 39.0453 82.3875 38.9939 82.1808 38.9425C81.9849 38.8936 81.7836 38.8691 81.5796 38.8691C81.264 38.8691 81.0219 38.9376 80.8423 39.0746C80.671 39.2067 80.5921 39.3535 80.5921 39.5443C80.5921 39.6812 80.6329 39.7889 80.7145 39.872C80.8151 39.9748 80.9512 40.0628 81.1171 40.1337C81.3075 40.2145 81.5143 40.2952 81.7319 40.371C81.9033 40.4273 82.0828 40.4933 82.2597 40.5643C82.4446 40.6401 82.616 40.733 82.7711 40.8407C82.9398 40.9581 83.0731 41.1048 83.171 41.2785C83.2689 41.4546 83.3206 41.665 83.3206 41.9071C83.3206 42.2129 83.239 42.482 83.0812 42.707C82.9234 42.932 82.7058 43.1057 82.4338 43.228C82.1699 43.3479 81.8706 43.4066 81.5442 43.4066V43.4115Z" fill="#010FAD"/>
<g clip-path="url(#clip0_785_938)">
<path d="M33.5437 31.0212V28.7023C33.5437 27.6309 32.6747 26.7619 31.601 26.7619H30.0392C30.5939 26.0382 31.0558 25.2477 31.4272 24.393C32.0176 23.0312 32.3128 21.5718 32.3128 20.01C32.3128 18.4482 32.0176 17.053 31.4272 15.6912C30.8367 14.3318 30.0177 13.1247 28.9678 12.0748C27.9179 11.0272 26.7108 10.1987 25.3514 9.60111C23.9896 9.00115 22.542 8.70117 21.0017 8.70117C19.4613 8.70117 17.9804 9.00115 16.621 9.60111C15.2616 10.1987 14.0664 11.0272 13.0355 12.0748C12.0046 13.1247 11.1999 14.3318 10.619 15.6912C10.0405 17.053 9.75 18.491 9.75 20.01C9.75 21.5289 10.0405 23.0312 10.619 24.393C11.1999 25.7525 12.0046 26.9476 13.0355 27.9785C14.0664 29.007 15.2616 29.8117 16.621 30.3926C17.8947 30.9355 19.2542 31.2212 20.6993 31.2592H20.7088C20.8041 31.2616 20.8993 31.2616 20.9945 31.2616H33.5437V31.0235H23.3467C23.3467 31.0235 23.3539 31.0212 23.3586 31.0212H33.5437ZM18.4352 26.4905C17.6066 26.131 16.8757 25.6263 16.2448 24.9763C15.6163 24.3264 15.1258 23.5764 14.7759 22.7265C14.4259 21.8765 14.2497 20.9718 14.2497 20.01C14.2497 19.0481 14.4187 18.1482 14.7616 17.2982C15.0997 16.4459 15.5806 15.7031 16.1996 15.0627C16.821 14.4199 17.54 13.9223 18.3614 13.5604C19.1803 13.2009 20.0708 13.0223 21.0326 13.0223C21.9945 13.0223 22.8801 13.2009 23.7015 13.5604C24.5205 13.9223 25.2371 14.4199 25.8466 15.0627C26.4561 15.7031 26.937 16.4459 27.287 17.2982C27.6369 18.1482 27.8107 19.0529 27.8107 20.01C27.8107 20.9671 27.6417 21.9075 27.3036 22.7574C26.9608 23.6074 26.4918 24.3525 25.8918 24.9906C25.2919 25.631 24.5871 26.131 23.7753 26.4905C22.9658 26.8524 22.0921 27.0333 21.1516 27.0333C20.2112 27.0333 19.2661 26.8524 18.4352 26.4905Z" fill="#010FAD"/>
<path d="M65.9066 16.1603C65.4614 14.7723 64.7591 13.5153 63.7996 12.3939C62.8378 11.2702 61.5712 10.3726 59.9927 9.69885C58.4166 9.02509 56.5049 8.68702 54.2622 8.68702H51.9242V8.66797H47.5888V22.7385C47.5888 23.4456 47.3816 24.1241 46.9674 24.7693C46.5531 25.4169 45.9913 25.943 45.2842 26.3478C44.5771 26.7525 43.7676 26.9525 42.8581 26.9525C42.0296 26.9525 41.2654 26.7525 40.5678 26.3478C39.8702 25.943 39.3107 25.4169 38.8846 24.7693C38.4608 24.1241 38.2489 23.4456 38.2489 22.7385V8.66797H33.8516V22.829C33.8516 24.467 34.2563 25.9169 35.0658 27.1811C35.8729 28.4453 36.9609 29.4357 38.3251 30.1523C39.6893 30.8713 41.2011 31.2284 42.8581 31.2284C42.92 31.2284 42.9843 31.2284 43.0462 31.226H55.3526C56.8691 31.226 58.3048 30.9784 59.6594 30.4761C61.0141 29.9761 62.2069 29.2524 63.2378 28.3024C64.2687 27.3525 65.0829 26.2097 65.6781 24.8717C66.2757 23.5361 66.5733 22.029 66.5733 20.3553C66.5733 18.9459 66.3519 17.5484 65.9066 16.1603ZM61.495 23.0361C61.1403 23.9027 60.6356 24.6217 59.9785 25.1931C59.3214 25.7669 58.5381 26.2002 57.6286 26.4954C56.7191 26.7906 55.7073 26.9406 54.5955 26.9406H51.9885V16.5579C51.9885 15.5604 52.3885 14.6557 53.036 14.0033C53.6836 13.3486 54.5788 12.9439 55.5668 12.9439C56.0716 12.9439 56.6882 13.0415 57.4167 13.2343C58.1429 13.4296 58.8571 13.7819 59.5547 14.2914C60.2499 14.8033 60.8379 15.5223 61.3117 16.4508C61.7879 17.3793 62.0259 18.5792 62.0259 20.0482C62.0259 21.1719 61.8474 22.1671 61.495 23.0361Z" fill="#010FAD"/>
<path d="M71.9286 15.5817V17.7077H81.5089V21.9527H71.9286V26.7738H82.7422V31.0212H67.5312V8.70117H82.7541V12.9485H74.5617C73.1071 12.9485 71.9286 14.127 71.9286 15.5817Z" fill="#010FAD"/>
<path d="M91.3065 12.95H99.3869V8.70508H84.1641V31.0227H99.375V26.7777H88.5614V21.9566H98.1417V17.7116H88.5614V15.6975C88.5614 14.1809 89.7899 12.95 91.3065 12.95Z" fill="#010FAD"/>
</g>
<defs>
<clipPath id="clip0_785_938">
<rect width="89.6371" height="22.5938" fill="white" transform="translate(9.75 8.66797)"/>
</clipPath>
</defs>
</svg>
